G04 #@! TF.FileFunction,Soldermask,Top*
%FSLAX46Y46*%
G04 Gerber Fmt 4.6, Leading zero omitted, Abs format (unit mm)*
G04 Created by KiCad (PCBNEW 4.0.7-e2-6376~58~ubuntu16.04.1) date Tue Apr  3 20:01:17 2018*
%MOMM*%
%LPD*%
G01*
G04 APERTURE LIST*
%ADD10C,0.203200*%
%ADD11C,1.727200*%
%ADD12R,1.003200X1.003200*%
%ADD13R,1.003200X1.203200*%
G04 APERTURE END LIST*
D10*
D11*
X144272000Y-69088000D03*
X144272000Y-71628000D03*
X144272000Y-74168000D03*
X144272000Y-76708000D03*
X144272000Y-79248000D03*
X144272000Y-81788000D03*
X144272000Y-84328000D03*
X144272000Y-86868000D03*
X144272000Y-89408000D03*
X144272000Y-91948000D03*
X144272000Y-94488000D03*
X144272000Y-97028000D03*
X144272000Y-99568000D03*
X144272000Y-102108000D03*
X144272000Y-104648000D03*
X144272000Y-107188000D03*
X144272000Y-109728000D03*
X144272000Y-112268000D03*
X144272000Y-114808000D03*
X144272000Y-117348000D03*
X144272000Y-119888000D03*
X144272000Y-122428000D03*
X144272000Y-124968000D03*
X144272000Y-127508000D03*
X144272000Y-130048000D03*
X144272000Y-132588000D03*
X144272000Y-135128000D03*
X144272000Y-137668000D03*
X144272000Y-140208000D03*
X144272000Y-142748000D03*
X144272000Y-145288000D03*
X144272000Y-147828000D03*
X159512000Y-147828000D03*
X159512000Y-145288000D03*
X159512000Y-142748000D03*
X159512000Y-140208000D03*
X159512000Y-137668000D03*
X159512000Y-135128000D03*
X159512000Y-132588000D03*
X159512000Y-130048000D03*
X159512000Y-127508000D03*
X159512000Y-124968000D03*
X159512000Y-122428000D03*
X159512000Y-119888000D03*
X159512000Y-117348000D03*
X159512000Y-114808000D03*
X159512000Y-112268000D03*
X159512000Y-109728000D03*
X159512000Y-107188000D03*
X159512000Y-104648000D03*
X159512000Y-102108000D03*
X159512000Y-99568000D03*
X159512000Y-97028000D03*
X159512000Y-94488000D03*
X159512000Y-91948000D03*
X159512000Y-89408000D03*
X159512000Y-86868000D03*
X159512000Y-84328000D03*
X159512000Y-81788000D03*
X159512000Y-79248000D03*
X159512000Y-76708000D03*
X159512000Y-74168000D03*
X159512000Y-71628000D03*
X159512000Y-69088000D03*
X154432000Y-135128000D03*
X154432000Y-132588000D03*
X154432000Y-130048000D03*
X154432000Y-127508000D03*
X154432000Y-124968000D03*
X154432000Y-122428000D03*
X154432000Y-119888000D03*
X154432000Y-117348000D03*
X154432000Y-114808000D03*
X154432000Y-112268000D03*
X154432000Y-109728000D03*
X154432000Y-107188000D03*
X154432000Y-104648000D03*
X154432000Y-102108000D03*
X154432000Y-99568000D03*
X154432000Y-97028000D03*
X154432000Y-94488000D03*
X154432000Y-91948000D03*
X154432000Y-89408000D03*
X154432000Y-86868000D03*
X154432000Y-84328000D03*
X154432000Y-81788000D03*
X149352000Y-135128000D03*
X149352000Y-132588000D03*
X149352000Y-130048000D03*
X149352000Y-127508000D03*
X149352000Y-124968000D03*
X149352000Y-122428000D03*
X149352000Y-119888000D03*
X149352000Y-117348000D03*
X149352000Y-114808000D03*
X149352000Y-112268000D03*
X149352000Y-109728000D03*
X149352000Y-107188000D03*
X149352000Y-104648000D03*
X149352000Y-102108000D03*
X149352000Y-99568000D03*
X149352000Y-97028000D03*
X149352000Y-94488000D03*
X149352000Y-91948000D03*
X149352000Y-89408000D03*
X149352000Y-86868000D03*
X149352000Y-84328000D03*
X149352000Y-81788000D03*
D12*
X151673600Y-142852800D03*
X149773600Y-142852800D03*
X150723600Y-145284800D03*
D13*
X146344600Y-145288000D03*
X148244600Y-145288000D03*
M02*
