G04 #@! TF.FileFunction,Copper,L2,Bot,Signal*
%FSLAX46Y46*%
G04 Gerber Fmt 4.6, Leading zero omitted, Abs format (unit mm)*
G04 Created by KiCad (PCBNEW 4.0.7-e2-6376~58~ubuntu16.04.1) date Tue Apr  3 20:01:17 2018*
%MOMM*%
%LPD*%
G01*
G04 APERTURE LIST*
%ADD10C,0.203200*%
%ADD11C,1.524000*%
%ADD12R,0.800000X1.000000*%
%ADD13R,0.800000X0.800000*%
%ADD14R,1.000000X0.800000*%
%ADD15R,2.000000X0.300000*%
%ADD16C,0.609600*%
%ADD17C,0.304800*%
%ADD18C,0.177800*%
G04 APERTURE END LIST*
D10*
D11*
X144272000Y-69088000D03*
X144272000Y-71628000D03*
X144272000Y-74168000D03*
X144272000Y-76708000D03*
X144272000Y-79248000D03*
X144272000Y-81788000D03*
X144272000Y-84328000D03*
X144272000Y-86868000D03*
X144272000Y-89408000D03*
X144272000Y-91948000D03*
X144272000Y-94488000D03*
X144272000Y-97028000D03*
X144272000Y-99568000D03*
X144272000Y-102108000D03*
X144272000Y-104648000D03*
X144272000Y-107188000D03*
X144272000Y-109728000D03*
X144272000Y-112268000D03*
X144272000Y-114808000D03*
X144272000Y-117348000D03*
X144272000Y-119888000D03*
X144272000Y-122428000D03*
X144272000Y-124968000D03*
X144272000Y-127508000D03*
X144272000Y-130048000D03*
X144272000Y-132588000D03*
X144272000Y-135128000D03*
X144272000Y-137668000D03*
X144272000Y-140208000D03*
X144272000Y-142748000D03*
X144272000Y-145288000D03*
X144272000Y-147828000D03*
X159512000Y-147828000D03*
X159512000Y-145288000D03*
X159512000Y-142748000D03*
X159512000Y-140208000D03*
X159512000Y-137668000D03*
X159512000Y-135128000D03*
X159512000Y-132588000D03*
X159512000Y-130048000D03*
X159512000Y-127508000D03*
X159512000Y-124968000D03*
X159512000Y-122428000D03*
X159512000Y-119888000D03*
X159512000Y-117348000D03*
X159512000Y-114808000D03*
X159512000Y-112268000D03*
X159512000Y-109728000D03*
X159512000Y-107188000D03*
X159512000Y-104648000D03*
X159512000Y-102108000D03*
X159512000Y-99568000D03*
X159512000Y-97028000D03*
X159512000Y-94488000D03*
X159512000Y-91948000D03*
X159512000Y-89408000D03*
X159512000Y-86868000D03*
X159512000Y-84328000D03*
X159512000Y-81788000D03*
X159512000Y-79248000D03*
X159512000Y-76708000D03*
X159512000Y-74168000D03*
X159512000Y-71628000D03*
X159512000Y-69088000D03*
D12*
X155382000Y-68453000D03*
X153482000Y-68453000D03*
D11*
X154432000Y-135128000D03*
X154432000Y-132588000D03*
X154432000Y-130048000D03*
X154432000Y-127508000D03*
X154432000Y-124968000D03*
X154432000Y-122428000D03*
X154432000Y-119888000D03*
X154432000Y-117348000D03*
X154432000Y-114808000D03*
X154432000Y-112268000D03*
X154432000Y-109728000D03*
X154432000Y-107188000D03*
X154432000Y-104648000D03*
X154432000Y-102108000D03*
X154432000Y-99568000D03*
X154432000Y-97028000D03*
X154432000Y-94488000D03*
X154432000Y-91948000D03*
X154432000Y-89408000D03*
X154432000Y-86868000D03*
X154432000Y-84328000D03*
X154432000Y-81788000D03*
X149352000Y-135128000D03*
X149352000Y-132588000D03*
X149352000Y-130048000D03*
X149352000Y-127508000D03*
X149352000Y-124968000D03*
X149352000Y-122428000D03*
X149352000Y-119888000D03*
X149352000Y-117348000D03*
X149352000Y-114808000D03*
X149352000Y-112268000D03*
X149352000Y-109728000D03*
X149352000Y-107188000D03*
X149352000Y-104648000D03*
X149352000Y-102108000D03*
X149352000Y-99568000D03*
X149352000Y-97028000D03*
X149352000Y-94488000D03*
X149352000Y-91948000D03*
X149352000Y-89408000D03*
X149352000Y-86868000D03*
X149352000Y-84328000D03*
X149352000Y-81788000D03*
D13*
X154300000Y-78181200D03*
X152400000Y-78181200D03*
X153350000Y-75749200D03*
D14*
X150698200Y-78191400D03*
X150698200Y-76291400D03*
X146304000Y-68519000D03*
X146304000Y-70419000D03*
D15*
X154813000Y-69760000D03*
X154813000Y-70410000D03*
X154813000Y-71060000D03*
X154813000Y-71710000D03*
X154813000Y-72360000D03*
X154813000Y-73010000D03*
X154813000Y-73660000D03*
X154813000Y-74310000D03*
X148813000Y-74310000D03*
X148813000Y-73660000D03*
X148813000Y-73010000D03*
X148813000Y-72360000D03*
X148813000Y-71710000D03*
X148813000Y-71060000D03*
X148813000Y-70410000D03*
X148813000Y-69760000D03*
D16*
X150596600Y-83388201D03*
X145872201Y-136525000D03*
X148488400Y-118516400D03*
X148450370Y-115874800D03*
X157937200Y-89509600D03*
X157365700Y-88915422D03*
X150952201Y-129006600D03*
X151663421Y-91490799D03*
X151498300Y-128418087D03*
X151307811Y-89349334D03*
X152019031Y-123896524D03*
X152019031Y-113512600D03*
X148894799Y-113512600D03*
X146939031Y-83058000D03*
X146075400Y-72339200D03*
X146583325Y-133613193D03*
X148742400Y-88188800D03*
X148158200Y-91490799D03*
X148157220Y-92849169D03*
X150952201Y-126238000D03*
X151307811Y-125450597D03*
X151663421Y-124673565D03*
X145975433Y-134221086D03*
X147574000Y-141630400D03*
X151638000Y-141630400D03*
X146939000Y-73660000D03*
X151587200Y-74345800D03*
X150466775Y-74346460D03*
D17*
X154813000Y-69760000D02*
X157022800Y-69760000D01*
X157022800Y-69760000D02*
X157022800Y-70408800D01*
X149352000Y-81788000D02*
X154432000Y-81788000D01*
X152400000Y-78181200D02*
X152400000Y-79756000D01*
X152400000Y-79756000D02*
X154432000Y-81788000D01*
X157581600Y-71018400D02*
X157581600Y-78638400D01*
X157581600Y-78638400D02*
X154432000Y-81788000D01*
X159512000Y-69088000D02*
X157581600Y-71018400D01*
X154813000Y-69760000D02*
X154813000Y-69022000D01*
X154813000Y-69022000D02*
X155382000Y-68453000D01*
X152501600Y-70967600D02*
X151944000Y-70410000D01*
X151944000Y-70410000D02*
X148813000Y-70410000D01*
X152501600Y-72685913D02*
X152501600Y-70967600D01*
X154813000Y-73660000D02*
X153475687Y-73660000D01*
X153475687Y-73660000D02*
X152501600Y-72685913D01*
X154813000Y-71710000D02*
X157017000Y-71710000D01*
X157017000Y-71710000D02*
X157022800Y-71704200D01*
X154813000Y-71060000D02*
X157006600Y-71060000D01*
X157006600Y-71060000D02*
X157022800Y-71043800D01*
X157022800Y-72161400D02*
X157022800Y-72339200D01*
X157022800Y-72339200D02*
X157022800Y-73660000D01*
X154813000Y-72360000D02*
X157002000Y-72360000D01*
X157002000Y-72360000D02*
X157022800Y-72339200D01*
X157022800Y-73660000D02*
X157022800Y-74091800D01*
X154813000Y-73660000D02*
X156117800Y-73660000D01*
X156117800Y-73660000D02*
X157022800Y-73660000D01*
X157022800Y-74091800D02*
X156804600Y-74310000D01*
X156804600Y-74310000D02*
X154813000Y-74310000D01*
X157022800Y-70408800D02*
X157022800Y-71043800D01*
X154813000Y-70410000D02*
X157021600Y-70410000D01*
X157021600Y-70410000D02*
X157022800Y-70408800D01*
X157022800Y-71043800D02*
X157022800Y-71704200D01*
X157022800Y-71704200D02*
X157022800Y-72161400D01*
X156824200Y-72360000D02*
X154813000Y-72360000D01*
X155382000Y-68453000D02*
X158877000Y-68453000D01*
X158877000Y-68453000D02*
X159512000Y-69088000D01*
X144272000Y-71628000D02*
X143103600Y-70459600D01*
X143738600Y-67767200D02*
X144747400Y-67767200D01*
X143103600Y-70459600D02*
X143103600Y-68402200D01*
X143103600Y-68402200D02*
X143738600Y-67767200D01*
X144747400Y-67767200D02*
X145499200Y-68519000D01*
X145499200Y-68519000D02*
X146304000Y-68519000D01*
X146304000Y-68519000D02*
X147294600Y-68519000D01*
X147294600Y-68519000D02*
X148818600Y-68519000D01*
X148813000Y-71060000D02*
X147508200Y-71060000D01*
X147508200Y-71060000D02*
X147294600Y-70846400D01*
X147294600Y-70846400D02*
X147294600Y-68519000D01*
X148818600Y-68519000D02*
X153416000Y-68519000D01*
X148813000Y-69760000D02*
X148813000Y-69305200D01*
X148813000Y-69305200D02*
X148818600Y-69299600D01*
X148818600Y-69299600D02*
X148818600Y-68519000D01*
X153416000Y-68519000D02*
X153482000Y-68453000D01*
X154813000Y-73010000D02*
X153508200Y-73010000D01*
X153508200Y-73010000D02*
X152984200Y-72486000D01*
X152984200Y-72486000D02*
X152984200Y-69011800D01*
X152984200Y-69011800D02*
X153482000Y-68514000D01*
X153482000Y-68514000D02*
X153482000Y-68453000D01*
D18*
X154432000Y-124968000D02*
X153670001Y-124206001D01*
X153670001Y-124206001D02*
X153670001Y-123695856D01*
X153670001Y-123695856D02*
X152869971Y-122895826D01*
X150596600Y-83388201D02*
X150596600Y-85069692D01*
X150596600Y-85069692D02*
X150736311Y-85209403D01*
X153301750Y-114169657D02*
X152869971Y-114601436D01*
X150736311Y-85209403D02*
X150736311Y-87012803D01*
X152514361Y-92311147D02*
X152514361Y-112156292D01*
X150736311Y-87012803D02*
X151091921Y-87368413D01*
X151091921Y-87368413D02*
X151091921Y-88287622D01*
X151091921Y-88287622D02*
X151879312Y-89075013D01*
X151879312Y-89075013D02*
X151879312Y-90106488D01*
X152590531Y-90817707D02*
X152590531Y-92234977D01*
X151879312Y-90106488D02*
X152590531Y-90817707D01*
X152590531Y-92234977D02*
X152514361Y-92311147D01*
X152869971Y-114601436D02*
X152869971Y-122895826D01*
X152514361Y-112156292D02*
X153301751Y-112943684D01*
X153301751Y-112943684D02*
X153301750Y-114169657D01*
X142532079Y-95222105D02*
X142532079Y-134910557D01*
X142532079Y-134910557D02*
X144146522Y-136525000D01*
X144146522Y-136525000D02*
X145441149Y-136525000D01*
X145441149Y-136525000D02*
X145872201Y-136525000D01*
X142887689Y-90289403D02*
X142887689Y-94866495D01*
X142887689Y-94866495D02*
X142532079Y-95222105D01*
X144272000Y-86868000D02*
X142887690Y-88252310D01*
X142887690Y-88252310D02*
X142887689Y-90289403D01*
X146011921Y-109728000D02*
X146011921Y-80987921D01*
X148488400Y-118516400D02*
X146011921Y-116039921D01*
X146011921Y-116039921D02*
X146011921Y-109728000D01*
X146011921Y-80987921D02*
X144272000Y-79248000D01*
X146151600Y-78587600D02*
X144272000Y-76708000D01*
X146367531Y-113791961D02*
X146367531Y-78803531D01*
X146367531Y-78803531D02*
X146151600Y-78587600D01*
X148450370Y-115874800D02*
X146367531Y-113791961D01*
X159512000Y-79248000D02*
X157937200Y-80822800D01*
X157937200Y-80822800D02*
X157937200Y-89509600D01*
X157581590Y-80675502D02*
X157581590Y-88699532D01*
X157581590Y-88699532D02*
X157365700Y-88915422D01*
X159512000Y-76708000D02*
X158216600Y-78003400D01*
X158216600Y-78003400D02*
X158216600Y-80040492D01*
X158216600Y-80040492D02*
X157581590Y-80675502D01*
X150926800Y-127109223D02*
X150926800Y-128981199D01*
X150926800Y-128981199D02*
X150952201Y-129006600D01*
X151523702Y-126530099D02*
X151505924Y-126530099D01*
X151505924Y-126530099D02*
X150926800Y-127109223D01*
X151879312Y-125724918D02*
X151879312Y-126174489D01*
X151879312Y-126174489D02*
X151523702Y-126530099D01*
X152234922Y-124526455D02*
X152234922Y-124947886D01*
X152234922Y-124947886D02*
X151879312Y-125303496D01*
X151879312Y-125303496D02*
X151879312Y-125724918D01*
X152158751Y-119964200D02*
X152158751Y-123190422D01*
X152158751Y-123190422D02*
X152590532Y-123622203D01*
X152590532Y-123622203D02*
X152590532Y-124170845D01*
X152590532Y-124170845D02*
X152234922Y-124526455D01*
X152590532Y-113238279D02*
X152293352Y-112941099D01*
X152158751Y-115498902D02*
X152158751Y-119964200D01*
X152158751Y-114306840D02*
X152158751Y-115498902D01*
X151803141Y-110871000D02*
X151803141Y-112450888D01*
X152590532Y-113238279D02*
X152590532Y-113875059D01*
X151803141Y-112450888D02*
X152590532Y-113238279D01*
X152590532Y-113875059D02*
X152158751Y-114306840D01*
X151803141Y-92306219D02*
X151803141Y-110871000D01*
X151663421Y-91490799D02*
X151663421Y-92166497D01*
X151663421Y-92166497D02*
X151803141Y-92306219D01*
X152234921Y-126321788D02*
X151498300Y-127058409D01*
X151498300Y-127058409D02*
X151498300Y-128418087D01*
X152234922Y-125450794D02*
X152234921Y-126321788D01*
X152590531Y-125095185D02*
X152234922Y-125450794D01*
X152946142Y-123474905D02*
X152946141Y-124318144D01*
X152946141Y-124318144D02*
X152590532Y-124673753D01*
X152590532Y-124673753D02*
X152590531Y-125095185D01*
X152514361Y-114454138D02*
X152514361Y-123043124D01*
X152514361Y-123043124D02*
X152946142Y-123474905D01*
X152946141Y-114022358D02*
X152514361Y-114454138D01*
X152946142Y-113090981D02*
X152946141Y-114022358D01*
X152158751Y-112303590D02*
X152946142Y-113090981D01*
X152158751Y-106095800D02*
X152158751Y-112303590D01*
X152158751Y-103314551D02*
X152158751Y-106095800D01*
X152158751Y-100609400D02*
X152158751Y-103314551D01*
X152158751Y-96494600D02*
X152158751Y-100609400D01*
X152158751Y-93675200D02*
X152158751Y-96494600D01*
X152158751Y-92163849D02*
X152158751Y-93675200D01*
X151485600Y-89958175D02*
X151485600Y-90467156D01*
X151485600Y-90467156D02*
X152234922Y-91216478D01*
X152234922Y-91216478D02*
X152234922Y-92087678D01*
X152234922Y-92087678D02*
X152158751Y-92163849D01*
X151307811Y-89349334D02*
X151307811Y-89780386D01*
X151307811Y-89780386D02*
X151485600Y-89958175D01*
X159512000Y-119888000D02*
X155473400Y-115849400D01*
X155473400Y-115849400D02*
X155473400Y-87909400D01*
X155473400Y-87909400D02*
X155193999Y-87629999D01*
X155193999Y-87629999D02*
X154432000Y-86868000D01*
X154432000Y-84328000D02*
X155829010Y-85725010D01*
X155829010Y-85725010D02*
X155829010Y-113665010D01*
X155829010Y-113665010D02*
X158750001Y-116586001D01*
X158750001Y-116586001D02*
X159512000Y-117348000D01*
X149352000Y-132588000D02*
X145300701Y-128536701D01*
X145300701Y-128536701D02*
X145300701Y-85356701D01*
X145300701Y-85356701D02*
X145033999Y-85089999D01*
X145033999Y-85089999D02*
X144272000Y-84328000D01*
X151803141Y-115646200D02*
X151803141Y-123680634D01*
X151803141Y-123680634D02*
X152019031Y-123896524D01*
X151803141Y-114159542D02*
X151803141Y-115646200D01*
X152019031Y-113512600D02*
X152019031Y-113943652D01*
X152019031Y-113943652D02*
X151803141Y-114159542D01*
X146723141Y-83324659D02*
X146723141Y-111340942D01*
X146723141Y-111340942D02*
X148894799Y-113512600D01*
X146939031Y-83058000D02*
X146939031Y-83108769D01*
X146939031Y-83108769D02*
X146723141Y-83324659D01*
X146075400Y-72339200D02*
X148792200Y-72339200D01*
X148792200Y-72339200D02*
X148813000Y-72360000D01*
X147015200Y-72339200D02*
X148792200Y-72339200D01*
X144272000Y-81788000D02*
X145656311Y-83172311D01*
X145656311Y-83172311D02*
X145656311Y-121272311D01*
X145656311Y-121272311D02*
X149352000Y-124968000D01*
X143243299Y-133081777D02*
X143778223Y-133616701D01*
X143778223Y-133616701D02*
X146579817Y-133616701D01*
X146579817Y-133616701D02*
X146583325Y-133613193D01*
X143243299Y-128001777D02*
X143243299Y-133081777D01*
X143243299Y-95516701D02*
X143243299Y-127812800D01*
X143243299Y-127812800D02*
X143243299Y-128001777D01*
X144272000Y-94488000D02*
X143243299Y-95516701D01*
X147230109Y-93580217D02*
X147230109Y-90666291D01*
X147230109Y-90666291D02*
X148323299Y-89573101D01*
X148323299Y-89573101D02*
X148323299Y-88607901D01*
X148323299Y-88607901D02*
X148437601Y-88493599D01*
X148437601Y-88493599D02*
X148742400Y-88188800D01*
X147612079Y-93962187D02*
X147230109Y-93580217D01*
X147612079Y-93962187D02*
X147612079Y-100368079D01*
X147612079Y-100368079D02*
X149352000Y-102108000D01*
X147853400Y-93700600D02*
X147967689Y-93814889D01*
X148158200Y-91490799D02*
X147585719Y-92063280D01*
X147585719Y-92063280D02*
X147585719Y-93432919D01*
X147585719Y-93432919D02*
X147853400Y-93700600D01*
X147967689Y-93814889D02*
X147967689Y-98183689D01*
X147967689Y-98183689D02*
X149352000Y-99568000D01*
X148323299Y-95999299D02*
X148323299Y-93726000D01*
X148157220Y-93280221D02*
X148323299Y-93446300D01*
X148157220Y-92849169D02*
X148157220Y-93280221D01*
X148323299Y-93446300D02*
X148323299Y-93726000D01*
X149352000Y-97028000D02*
X148323299Y-95999299D01*
X156171899Y-134099299D02*
X157683198Y-132588000D01*
X157683198Y-132588000D02*
X159512000Y-132588000D01*
X150380701Y-131330701D02*
X153149299Y-134099299D01*
X153149299Y-134099299D02*
X156171899Y-134099299D01*
X149352000Y-91948000D02*
X150380701Y-92976701D01*
X150380701Y-92976701D02*
X150380701Y-131330701D01*
X150952201Y-126238000D02*
X150736311Y-126022110D01*
X150736311Y-126022110D02*
X150736311Y-92748111D01*
X150736311Y-92748111D02*
X150380701Y-92392501D01*
X150380701Y-92392501D02*
X150380701Y-90436701D01*
X150380701Y-90436701D02*
X150113999Y-90169999D01*
X150113999Y-90169999D02*
X149352000Y-89408000D01*
X151307811Y-125450597D02*
X151091921Y-125234707D01*
X151091921Y-125234707D02*
X151091920Y-92600812D01*
X151091920Y-92600812D02*
X150736311Y-92245203D01*
X150736311Y-92245203D02*
X150736311Y-90233511D01*
X150736311Y-90233511D02*
X150380701Y-89877901D01*
X150380701Y-89877901D02*
X150380701Y-87896701D01*
X150380701Y-87896701D02*
X150063200Y-87579200D01*
X150063200Y-87579200D02*
X149352000Y-86868000D01*
X151663421Y-124673565D02*
X151447531Y-124457675D01*
X151447531Y-124457675D02*
X151447531Y-92453517D01*
X151447531Y-92453517D02*
X151447529Y-92453513D01*
X151447529Y-92453513D02*
X151091921Y-92097905D01*
X151091921Y-92097905D02*
X151091920Y-90086212D01*
X150736311Y-89730603D02*
X150736311Y-87515711D01*
X150380701Y-85356701D02*
X150190200Y-85166200D01*
X151091920Y-90086212D02*
X150736311Y-89730603D01*
X150736311Y-87515711D02*
X150380701Y-87160101D01*
X150380701Y-87160101D02*
X150380701Y-85356701D01*
X150190200Y-85166200D02*
X149352000Y-84328000D01*
X142887690Y-128149076D02*
X142887690Y-133435338D01*
X142887690Y-133435338D02*
X143551651Y-134099299D01*
X143551651Y-134099299D02*
X145853646Y-134099299D01*
X145853646Y-134099299D02*
X145975433Y-134221086D01*
X147574000Y-141630400D02*
X151206948Y-141630400D01*
X142887689Y-95369403D02*
X142887689Y-126695200D01*
X142887689Y-126695200D02*
X142887690Y-128149076D01*
X151206948Y-141630400D02*
X151638000Y-141630400D01*
X144272000Y-89408000D02*
X143243299Y-90436701D01*
X143243299Y-90436701D02*
X143243299Y-95013793D01*
X143243299Y-95013793D02*
X142887689Y-95369403D01*
X146939000Y-73660000D02*
X146939000Y-74091052D01*
X146939000Y-74091052D02*
X149139348Y-76291400D01*
X149139348Y-76291400D02*
X150020400Y-76291400D01*
X150020400Y-76291400D02*
X150698200Y-76291400D01*
X146939000Y-73660000D02*
X148813000Y-73660000D01*
X147396200Y-73660000D02*
X148813000Y-73660000D01*
X150076236Y-73010000D02*
X150251400Y-73010000D01*
X150251400Y-73010000D02*
X151587200Y-74345800D01*
X148813000Y-73010000D02*
X150076236Y-73010000D01*
X148813000Y-74310000D02*
X150430315Y-74310000D01*
X150430315Y-74310000D02*
X150466775Y-74346460D01*
X153861800Y-77165200D02*
X151824400Y-77165200D01*
X150798200Y-78191400D02*
X150698200Y-78191400D01*
X151824400Y-77165200D02*
X150798200Y-78191400D01*
X154300000Y-78181200D02*
X154300000Y-77603400D01*
X154300000Y-77603400D02*
X153861800Y-77165200D01*
X153350000Y-75749200D02*
X153350000Y-74127023D01*
X149990800Y-71710000D02*
X148813000Y-71710000D01*
X153350000Y-74127023D02*
X150932977Y-71710000D01*
X150932977Y-71710000D02*
X149990800Y-71710000D01*
X146817800Y-71710000D02*
X146304000Y-71196200D01*
X146304000Y-71196200D02*
X146304000Y-70419000D01*
X148813000Y-71710000D02*
X146817800Y-71710000D01*
M02*
