M48
;DRILL file {KiCad 4.0.7-e2-6376~58~ubuntu16.04.1} date Tue Apr  3 20:01:26 2018
;FORMAT={-:-/ absolute / metric / decimal}
FMAT,2
METRIC,TZ
T1C0.305
T2C1.016
%
G90
G05
M71
T1
X145.872Y-136.525
X145.975Y-134.221
X146.075Y-72.339
X146.583Y-133.613
X146.939Y-73.66
X146.939Y-83.058
X147.574Y-141.63
X148.157Y-92.849
X148.158Y-91.491
X148.45Y-115.875
X148.488Y-118.516
X148.742Y-88.189
X148.895Y-113.513
X150.467Y-74.346
X150.597Y-83.388
X150.952Y-126.238
X150.952Y-129.007
X151.308Y-89.349
X151.308Y-125.451
X151.498Y-128.418
X151.587Y-74.346
X151.638Y-141.63
X151.663Y-91.491
X151.663Y-124.674
X152.019Y-113.513
X152.019Y-123.897
X157.366Y-88.915
X157.937Y-89.51
T2
X144.272Y-69.088
X144.272Y-71.628
X144.272Y-74.168
X144.272Y-76.708
X144.272Y-79.248
X144.272Y-81.788
X144.272Y-84.328
X144.272Y-86.868
X144.272Y-89.408
X144.272Y-91.948
X144.272Y-94.488
X144.272Y-97.028
X144.272Y-99.568
X144.272Y-102.108
X144.272Y-104.648
X144.272Y-107.188
X144.272Y-109.728
X144.272Y-112.268
X144.272Y-114.808
X144.272Y-117.348
X144.272Y-119.888
X144.272Y-122.428
X144.272Y-124.968
X144.272Y-127.508
X144.272Y-130.048
X144.272Y-132.588
X144.272Y-135.128
X144.272Y-137.668
X144.272Y-140.208
X144.272Y-142.748
X144.272Y-145.288
X144.272Y-147.828
X149.352Y-81.788
X149.352Y-84.328
X149.352Y-86.868
X149.352Y-89.408
X149.352Y-91.948
X149.352Y-94.488
X149.352Y-97.028
X149.352Y-99.568
X149.352Y-102.108
X149.352Y-104.648
X149.352Y-107.188
X149.352Y-109.728
X149.352Y-112.268
X149.352Y-114.808
X149.352Y-117.348
X149.352Y-119.888
X149.352Y-122.428
X149.352Y-124.968
X149.352Y-127.508
X149.352Y-130.048
X149.352Y-132.588
X149.352Y-135.128
X154.432Y-81.788
X154.432Y-84.328
X154.432Y-86.868
X154.432Y-89.408
X154.432Y-91.948
X154.432Y-94.488
X154.432Y-97.028
X154.432Y-99.568
X154.432Y-102.108
X154.432Y-104.648
X154.432Y-107.188
X154.432Y-109.728
X154.432Y-112.268
X154.432Y-114.808
X154.432Y-117.348
X154.432Y-119.888
X154.432Y-122.428
X154.432Y-124.968
X154.432Y-127.508
X154.432Y-130.048
X154.432Y-132.588
X154.432Y-135.128
X159.512Y-69.088
X159.512Y-71.628
X159.512Y-74.168
X159.512Y-76.708
X159.512Y-79.248
X159.512Y-81.788
X159.512Y-84.328
X159.512Y-86.868
X159.512Y-89.408
X159.512Y-91.948
X159.512Y-94.488
X159.512Y-97.028
X159.512Y-99.568
X159.512Y-102.108
X159.512Y-104.648
X159.512Y-107.188
X159.512Y-109.728
X159.512Y-112.268
X159.512Y-114.808
X159.512Y-117.348
X159.512Y-119.888
X159.512Y-122.428
X159.512Y-124.968
X159.512Y-127.508
X159.512Y-130.048
X159.512Y-132.588
X159.512Y-135.128
X159.512Y-137.668
X159.512Y-140.208
X159.512Y-142.748
X159.512Y-145.288
X159.512Y-147.828
T0
M30
