G04 #@! TF.FileFunction,Copper,L1,Top,Signal*
%FSLAX46Y46*%
G04 Gerber Fmt 4.6, Leading zero omitted, Abs format (unit mm)*
G04 Created by KiCad (PCBNEW 4.0.7-e2-6376~58~ubuntu16.04.1) date Tue Apr  3 20:01:17 2018*
%MOMM*%
%LPD*%
G01*
G04 APERTURE LIST*
%ADD10C,0.203200*%
%ADD11C,1.524000*%
%ADD12R,0.800000X0.800000*%
%ADD13R,0.800000X1.000000*%
%ADD14C,0.609600*%
%ADD15C,0.304800*%
%ADD16C,0.177800*%
G04 APERTURE END LIST*
D10*
D11*
X144272000Y-69088000D03*
X144272000Y-71628000D03*
X144272000Y-74168000D03*
X144272000Y-76708000D03*
X144272000Y-79248000D03*
X144272000Y-81788000D03*
X144272000Y-84328000D03*
X144272000Y-86868000D03*
X144272000Y-89408000D03*
X144272000Y-91948000D03*
X144272000Y-94488000D03*
X144272000Y-97028000D03*
X144272000Y-99568000D03*
X144272000Y-102108000D03*
X144272000Y-104648000D03*
X144272000Y-107188000D03*
X144272000Y-109728000D03*
X144272000Y-112268000D03*
X144272000Y-114808000D03*
X144272000Y-117348000D03*
X144272000Y-119888000D03*
X144272000Y-122428000D03*
X144272000Y-124968000D03*
X144272000Y-127508000D03*
X144272000Y-130048000D03*
X144272000Y-132588000D03*
X144272000Y-135128000D03*
X144272000Y-137668000D03*
X144272000Y-140208000D03*
X144272000Y-142748000D03*
X144272000Y-145288000D03*
X144272000Y-147828000D03*
X159512000Y-147828000D03*
X159512000Y-145288000D03*
X159512000Y-142748000D03*
X159512000Y-140208000D03*
X159512000Y-137668000D03*
X159512000Y-135128000D03*
X159512000Y-132588000D03*
X159512000Y-130048000D03*
X159512000Y-127508000D03*
X159512000Y-124968000D03*
X159512000Y-122428000D03*
X159512000Y-119888000D03*
X159512000Y-117348000D03*
X159512000Y-114808000D03*
X159512000Y-112268000D03*
X159512000Y-109728000D03*
X159512000Y-107188000D03*
X159512000Y-104648000D03*
X159512000Y-102108000D03*
X159512000Y-99568000D03*
X159512000Y-97028000D03*
X159512000Y-94488000D03*
X159512000Y-91948000D03*
X159512000Y-89408000D03*
X159512000Y-86868000D03*
X159512000Y-84328000D03*
X159512000Y-81788000D03*
X159512000Y-79248000D03*
X159512000Y-76708000D03*
X159512000Y-74168000D03*
X159512000Y-71628000D03*
X159512000Y-69088000D03*
X154432000Y-135128000D03*
X154432000Y-132588000D03*
X154432000Y-130048000D03*
X154432000Y-127508000D03*
X154432000Y-124968000D03*
X154432000Y-122428000D03*
X154432000Y-119888000D03*
X154432000Y-117348000D03*
X154432000Y-114808000D03*
X154432000Y-112268000D03*
X154432000Y-109728000D03*
X154432000Y-107188000D03*
X154432000Y-104648000D03*
X154432000Y-102108000D03*
X154432000Y-99568000D03*
X154432000Y-97028000D03*
X154432000Y-94488000D03*
X154432000Y-91948000D03*
X154432000Y-89408000D03*
X154432000Y-86868000D03*
X154432000Y-84328000D03*
X154432000Y-81788000D03*
X149352000Y-135128000D03*
X149352000Y-132588000D03*
X149352000Y-130048000D03*
X149352000Y-127508000D03*
X149352000Y-124968000D03*
X149352000Y-122428000D03*
X149352000Y-119888000D03*
X149352000Y-117348000D03*
X149352000Y-114808000D03*
X149352000Y-112268000D03*
X149352000Y-109728000D03*
X149352000Y-107188000D03*
X149352000Y-104648000D03*
X149352000Y-102108000D03*
X149352000Y-99568000D03*
X149352000Y-97028000D03*
X149352000Y-94488000D03*
X149352000Y-91948000D03*
X149352000Y-89408000D03*
X149352000Y-86868000D03*
X149352000Y-84328000D03*
X149352000Y-81788000D03*
D12*
X151673600Y-142852800D03*
X149773600Y-142852800D03*
X150723600Y-145284800D03*
D13*
X146344600Y-145288000D03*
X148244600Y-145288000D03*
D14*
X150596600Y-83388201D03*
X145872201Y-136525000D03*
X148488400Y-118516400D03*
X148450370Y-115874800D03*
X157937200Y-89509600D03*
X157365700Y-88915422D03*
X150952201Y-129006600D03*
X151663421Y-91490799D03*
X151498300Y-128418087D03*
X151307811Y-89349334D03*
X152019031Y-123896524D03*
X152019031Y-113512600D03*
X148894799Y-113512600D03*
X146939031Y-83058000D03*
X146075400Y-72339200D03*
X146583325Y-133613193D03*
X148742400Y-88188800D03*
X148158200Y-91490799D03*
X148157220Y-92849169D03*
X150952201Y-126238000D03*
X151307811Y-125450597D03*
X151663421Y-124673565D03*
X145975433Y-134221086D03*
X147574000Y-141630400D03*
X151638000Y-141630400D03*
X146939000Y-73660000D03*
X151587200Y-74345800D03*
X150466775Y-74346460D03*
D15*
X144272000Y-147828000D02*
X145033999Y-148589999D01*
X145033999Y-148589999D02*
X158750001Y-148589999D01*
X158750001Y-148589999D02*
X159512000Y-147828000D01*
X154432000Y-135128000D02*
X154432000Y-142748000D01*
X154432000Y-142748000D02*
X159512000Y-147828000D01*
X144272000Y-69088000D02*
X145349630Y-69088000D01*
X145349630Y-69088000D02*
X159512000Y-69088000D01*
X144272000Y-145288000D02*
X146344600Y-145288000D01*
X143992600Y-149352000D02*
X159604458Y-149352000D01*
X160273999Y-146049999D02*
X159512000Y-145288000D01*
X159604458Y-149352000D02*
X160604201Y-148352257D01*
X160604201Y-148352257D02*
X160604201Y-146380201D01*
X160604201Y-146380201D02*
X160273999Y-146049999D01*
X143179799Y-148539199D02*
X143992600Y-149352000D01*
X144272000Y-145288000D02*
X143179799Y-146380201D01*
X143179799Y-146380201D02*
X143179799Y-148539199D01*
X154432000Y-132588000D02*
X155524201Y-133680201D01*
X155524201Y-133680201D02*
X155524201Y-141300201D01*
X158750001Y-144526001D02*
X159512000Y-145288000D01*
X155524201Y-141300201D02*
X158750001Y-144526001D01*
X154432000Y-130048000D02*
X154432000Y-132588000D01*
D16*
X158483299Y-83802207D02*
X157980391Y-83299299D01*
X157980391Y-83299299D02*
X150685502Y-83299299D01*
X150685502Y-83299299D02*
X150596600Y-83388201D01*
X159512000Y-86868000D02*
X158483299Y-85839299D01*
X158483299Y-85839299D02*
X158483299Y-83802207D01*
X154432000Y-119888000D02*
X150698200Y-123621800D01*
X150698200Y-123621800D02*
X148661108Y-123621800D01*
X148661108Y-123621800D02*
X148158220Y-124124688D01*
X147802620Y-127706028D02*
X147434359Y-128074289D01*
X148158220Y-124124688D02*
X148158220Y-125105042D01*
X146107667Y-135820627D02*
X145872201Y-136056093D01*
X145872201Y-136056093D02*
X145872201Y-136525000D01*
X148158220Y-125105042D02*
X147802620Y-125460642D01*
X147802620Y-125460642D02*
X147802620Y-127706028D01*
X147434359Y-128074289D02*
X147434359Y-129923457D01*
X147434359Y-129923457D02*
X147078751Y-130279065D01*
X147078751Y-130279065D02*
X147078751Y-133248525D01*
X147154826Y-133887514D02*
X146107667Y-134934673D01*
X146107667Y-134934673D02*
X146107667Y-135820627D01*
X147078751Y-133248525D02*
X147154826Y-133324600D01*
X147154826Y-133324600D02*
X147154826Y-133887514D01*
X154432000Y-117348000D02*
X153263600Y-118516400D01*
X153263600Y-118516400D02*
X148488400Y-118516400D01*
X154432000Y-114808000D02*
X153365200Y-115874800D01*
X153365200Y-115874800D02*
X148450370Y-115874800D01*
X160439101Y-90436701D02*
X159435800Y-90436701D01*
X157937200Y-89940652D02*
X158433249Y-90436701D01*
X157937200Y-89509600D02*
X157937200Y-89940652D01*
X158433249Y-90436701D02*
X159435800Y-90436701D01*
X155580062Y-111119938D02*
X155580062Y-109098062D01*
X155580062Y-109098062D02*
X158645813Y-106032311D01*
X158645813Y-106032311D02*
X160153075Y-106032311D01*
X160153075Y-106032311D02*
X160896311Y-105289075D01*
X160896311Y-105289075D02*
X160896311Y-90893911D01*
X160896311Y-90893911D02*
X160439101Y-90436701D01*
X154432000Y-112268000D02*
X155580062Y-111119938D01*
X157365700Y-88915422D02*
X157365700Y-90411300D01*
X157365700Y-90411300D02*
X157873699Y-90919299D01*
X160005777Y-90919299D02*
X157873699Y-90919299D01*
X154432000Y-109728000D02*
X154447216Y-109728000D01*
X154447216Y-109728000D02*
X158498515Y-105676701D01*
X158498515Y-105676701D02*
X160005777Y-105676701D01*
X160005777Y-105676701D02*
X160540701Y-105141777D01*
X160540701Y-105141777D02*
X160540701Y-91454223D01*
X160540701Y-91454223D02*
X160005777Y-90919299D01*
X144272000Y-117348000D02*
X145389600Y-116230400D01*
X145389600Y-116230400D02*
X145389600Y-114193308D01*
X145389600Y-114193308D02*
X146151553Y-113431355D01*
X146151553Y-113431355D02*
X146151553Y-91282555D01*
X146151553Y-91282555D02*
X146870419Y-90563689D01*
X146870419Y-90563689D02*
X155073076Y-90563690D01*
X155073076Y-90563690D02*
X156171921Y-91662535D01*
X155193999Y-101346001D02*
X154432000Y-102108000D01*
X156171921Y-91662535D02*
X156171921Y-100368079D01*
X156171921Y-100368079D02*
X155193999Y-101346001D01*
X144272000Y-119888000D02*
X145300701Y-118859299D01*
X145745210Y-114340606D02*
X146507162Y-113578654D01*
X145300701Y-118859299D02*
X145300701Y-116822207D01*
X145300701Y-116822207D02*
X145745210Y-116377698D01*
X145745210Y-116377698D02*
X145745210Y-114340606D01*
X146507162Y-113578654D02*
X146507162Y-91429854D01*
X146507162Y-91429854D02*
X147017717Y-90919299D01*
X147017717Y-90919299D02*
X154925777Y-90919299D01*
X154925777Y-90919299D02*
X155816311Y-91809833D01*
X155816311Y-91809833D02*
X155816311Y-98183689D01*
X155816311Y-98183689D02*
X155193999Y-98806001D01*
X155193999Y-98806001D02*
X154432000Y-99568000D01*
X144272000Y-127508000D02*
X145300701Y-126479299D01*
X146011921Y-121693895D02*
X146011921Y-119656803D01*
X145300701Y-126479299D02*
X145300701Y-124442207D01*
X145300701Y-124442207D02*
X145656311Y-124086597D01*
X145656311Y-124086597D02*
X145656311Y-122049505D01*
X155193999Y-96266001D02*
X154432000Y-97028000D01*
X145656311Y-122049505D02*
X146011921Y-121693895D01*
X146812040Y-116819592D02*
X146812040Y-114782500D01*
X148710925Y-93103689D02*
X154570167Y-93103689D01*
X146011921Y-119656803D02*
X146367531Y-119301193D01*
X146367531Y-119301193D02*
X146367531Y-117264101D01*
X146812040Y-114782500D02*
X147573992Y-114020548D01*
X146367531Y-117264101D02*
X146812040Y-116819592D01*
X155460701Y-93994223D02*
X155460701Y-95999299D01*
X147573992Y-114020548D02*
X147573991Y-94240623D01*
X147573991Y-94240623D02*
X148710925Y-93103689D01*
X154570167Y-93103689D02*
X155460701Y-93994223D01*
X155460701Y-95999299D02*
X155193999Y-96266001D01*
X146011921Y-124233895D02*
X146011921Y-122196803D01*
X146723141Y-117411399D02*
X147167650Y-116966890D01*
X145656311Y-124589505D02*
X146011921Y-124233895D01*
X144272000Y-130048000D02*
X145300701Y-129019299D01*
X145300701Y-129019299D02*
X145300701Y-127190501D01*
X147167650Y-116966890D02*
X147167650Y-114929798D01*
X145300701Y-127190501D02*
X145656311Y-126834891D01*
X147929601Y-114167847D02*
X147929600Y-94387922D01*
X145656311Y-126834891D02*
X145656311Y-124589505D01*
X146011921Y-122196803D02*
X146367531Y-121841193D01*
X146367531Y-121841193D02*
X146367531Y-119804101D01*
X146367531Y-119804101D02*
X146723141Y-119448491D01*
X146723141Y-119448491D02*
X146723141Y-117411399D01*
X147167650Y-114929798D02*
X147929601Y-114167847D01*
X147929600Y-94387922D02*
X148858223Y-93459299D01*
X148858223Y-93459299D02*
X153403299Y-93459299D01*
X153403299Y-93459299D02*
X153670001Y-93726001D01*
X153670001Y-93726001D02*
X154432000Y-94488000D01*
X150952201Y-129006600D02*
X158470600Y-129006600D01*
X158470600Y-129006600D02*
X159512000Y-130048000D01*
X154432000Y-91948000D02*
X152120622Y-91948000D01*
X152120622Y-91948000D02*
X151663421Y-91490799D01*
X151498300Y-128418087D02*
X151929352Y-128418087D01*
X151929352Y-128418087D02*
X152047966Y-128536701D01*
X152047966Y-128536701D02*
X158483299Y-128536701D01*
X158483299Y-128536701D02*
X158750001Y-128269999D01*
X158750001Y-128269999D02*
X159512000Y-127508000D01*
X154432000Y-89408000D02*
X151366477Y-89408000D01*
X151366477Y-89408000D02*
X151307811Y-89349334D01*
X149352000Y-135128000D02*
X149352000Y-136205630D01*
X149352000Y-136205630D02*
X148244600Y-137313030D01*
X148244600Y-137313030D02*
X148244600Y-144610200D01*
X148244600Y-144610200D02*
X148244600Y-145288000D01*
X148244600Y-145288000D02*
X150720400Y-145288000D01*
X150720400Y-145288000D02*
X150723600Y-145284800D01*
X148551899Y-82816701D02*
X148310600Y-83058000D01*
X148310600Y-83058000D02*
X146939031Y-83058000D01*
X159512000Y-84328000D02*
X158000701Y-82816701D01*
X158000701Y-82816701D02*
X148551899Y-82816701D01*
X152019031Y-123896524D02*
X151587979Y-123896524D01*
X151587979Y-123896524D02*
X150380700Y-125103803D01*
X150380700Y-125103803D02*
X150380700Y-129019300D01*
X150380700Y-129019300D02*
X150113999Y-129286001D01*
X150113999Y-129286001D02*
X149352000Y-130048000D01*
X148894799Y-113512600D02*
X152019031Y-113512600D01*
X146659600Y-75463400D02*
X146075400Y-74879200D01*
X146075400Y-74879200D02*
X146075400Y-72339200D01*
X150749000Y-75463400D02*
X150139400Y-75463400D01*
X159789878Y-75463400D02*
X150749000Y-75463400D01*
X150749000Y-75463400D02*
X146659600Y-75463400D01*
X159512000Y-84328000D02*
X160540701Y-83299299D01*
X160540701Y-83299299D02*
X160540701Y-76214223D01*
X160540701Y-76214223D02*
X159789878Y-75463400D01*
X146583325Y-133613193D02*
X146723141Y-133473377D01*
X146723141Y-133473377D02*
X146723141Y-130131767D01*
X146723141Y-130131767D02*
X147078749Y-129776159D01*
X147078749Y-129776159D02*
X147078749Y-127926991D01*
X147078749Y-127926991D02*
X147447010Y-127558730D01*
X147447010Y-127558730D02*
X147447010Y-125313344D01*
X147802610Y-124957744D02*
X147802610Y-123977390D01*
X147447010Y-125313344D02*
X147802610Y-124957744D01*
X147802610Y-123977390D02*
X149352000Y-122428000D01*
X146387901Y-129964099D02*
X146723139Y-129628861D01*
X146723139Y-127779693D02*
X147091400Y-127411432D01*
X144272000Y-102108000D02*
X142532080Y-103847920D01*
X142532080Y-103847920D02*
X142532080Y-135393156D01*
X142532080Y-135393156D02*
X143295625Y-136156701D01*
X143295625Y-136156701D02*
X144765777Y-136156701D01*
X144765777Y-136156701D02*
X145396447Y-135526031D01*
X145396447Y-135526031D02*
X145396447Y-133991847D01*
X146367531Y-133020763D02*
X146367531Y-129964099D01*
X145396447Y-133991847D02*
X146367531Y-133020763D01*
X147091400Y-127411432D02*
X147091400Y-125166046D01*
X146367531Y-129964099D02*
X146387901Y-129964099D01*
X147447000Y-124810446D02*
X147447000Y-122773354D01*
X146723139Y-129628861D02*
X146723139Y-127779693D01*
X147091400Y-125166046D02*
X147447000Y-124810446D01*
X147447000Y-122773354D02*
X147802600Y-122417754D01*
X147802600Y-122417754D02*
X147802600Y-121437400D01*
X147802600Y-121437400D02*
X149352000Y-119888000D01*
X147078749Y-122638699D02*
X147434359Y-122283087D01*
X144272000Y-104648000D02*
X142887690Y-106032310D01*
X147434359Y-122283087D02*
X147434360Y-120245996D01*
X142887690Y-106032310D02*
X142887690Y-133229076D01*
X147789969Y-119890385D02*
X147789969Y-117853295D01*
X144913076Y-133972310D02*
X146011921Y-132873465D01*
X142887690Y-133229076D02*
X143630925Y-133972311D01*
X143630925Y-133972311D02*
X144913076Y-133972310D01*
X146723140Y-125031400D02*
X147078749Y-124675789D01*
X146011921Y-132873465D02*
X146011921Y-129816803D01*
X146011921Y-129816803D02*
X146367529Y-129461193D01*
X146367529Y-129461193D02*
X146367529Y-127632397D01*
X146367529Y-127632397D02*
X146723139Y-127276785D01*
X146723139Y-127276785D02*
X146723140Y-125031400D01*
X147078749Y-124675789D02*
X147078749Y-122638699D01*
X147434360Y-120245996D02*
X147789969Y-119890385D01*
X147789969Y-117853295D02*
X148066664Y-117576600D01*
X148066664Y-117576600D02*
X149123400Y-117576600D01*
X149123400Y-117576600D02*
X149352000Y-117348000D01*
X144272000Y-112268000D02*
X143243299Y-113296701D01*
X143243299Y-133081777D02*
X143778223Y-133616701D01*
X145656311Y-132726167D02*
X145656311Y-129669505D01*
X143243299Y-113296701D02*
X143243299Y-133081777D01*
X143778223Y-133616701D02*
X144765777Y-133616701D01*
X145656311Y-129669505D02*
X146011920Y-129313896D01*
X144765777Y-133616701D02*
X145656311Y-132726167D01*
X146723140Y-124528492D02*
X146723141Y-122491399D01*
X147078750Y-122135790D02*
X147078751Y-120098697D01*
X146011920Y-129313896D02*
X146011921Y-127485097D01*
X147434361Y-117705995D02*
X147878870Y-117261486D01*
X147878870Y-115261560D02*
X148205430Y-114935000D01*
X146723141Y-122491399D02*
X147078750Y-122135790D01*
X146011921Y-127485097D02*
X146367530Y-127129488D01*
X146367530Y-127129488D02*
X146367531Y-124884101D01*
X146367531Y-124884101D02*
X146723140Y-124528492D01*
X147078751Y-120098697D02*
X147434360Y-119743088D01*
X147434360Y-119743088D02*
X147434361Y-117705995D01*
X147878870Y-117261486D02*
X147878870Y-115261560D01*
X148205430Y-114935000D02*
X149225000Y-114935000D01*
X149225000Y-114935000D02*
X149352000Y-114808000D01*
X149352000Y-112268000D02*
X152909522Y-112268000D01*
X152909522Y-112268000D02*
X153938223Y-113296701D01*
X153938223Y-113296701D02*
X158483299Y-113296701D01*
X158483299Y-113296701D02*
X158750001Y-113029999D01*
X158750001Y-113029999D02*
X159512000Y-112268000D01*
X159512000Y-104648000D02*
X159024308Y-104648000D01*
X159024308Y-104648000D02*
X154973009Y-108699299D01*
X154973009Y-108699299D02*
X153938223Y-108699299D01*
X153938223Y-108699299D02*
X152909522Y-109728000D01*
X152909522Y-109728000D02*
X149352000Y-109728000D01*
X149352000Y-107188000D02*
X150507690Y-108343690D01*
X150507690Y-108343690D02*
X154825711Y-108343689D01*
X158483299Y-103136701D02*
X158750001Y-102869999D01*
X154825711Y-108343689D02*
X158483299Y-104686101D01*
X158483299Y-104686101D02*
X158483299Y-103136701D01*
X158750001Y-102869999D02*
X159512000Y-102108000D01*
X156519892Y-106146600D02*
X158127689Y-104538803D01*
X158127689Y-104538803D02*
X158127689Y-95872311D01*
X158127689Y-95872311D02*
X158750001Y-95249999D01*
X158750001Y-95249999D02*
X159512000Y-94488000D01*
X150850600Y-106146600D02*
X156519892Y-106146600D01*
X149352000Y-104648000D02*
X150850600Y-106146600D01*
X144272000Y-114808000D02*
X145795943Y-113284057D01*
X145795943Y-113284057D02*
X145795944Y-91135256D01*
X145795944Y-91135256D02*
X148742400Y-88188800D01*
X146862772Y-93297796D02*
X146862772Y-92786227D01*
X146862772Y-92786227D02*
X148158200Y-91490799D01*
X144272000Y-122428000D02*
X145300701Y-121399299D01*
X145300701Y-121399299D02*
X145300701Y-119362207D01*
X145300701Y-119362207D02*
X145656311Y-119006597D01*
X145656311Y-119006597D02*
X145656311Y-116969505D01*
X145656311Y-116969505D02*
X146100820Y-116524996D01*
X146862772Y-113725952D02*
X146862772Y-93297796D01*
X146100820Y-116524996D02*
X146100820Y-114487904D01*
X146100820Y-114487904D02*
X146862772Y-113725952D01*
X147695450Y-93616256D02*
X147695450Y-93310939D01*
X147695450Y-93310939D02*
X148157220Y-92849169D01*
X146011921Y-119153895D02*
X146011921Y-117116803D01*
X144272000Y-124968000D02*
X145300701Y-123939299D01*
X145300701Y-123939299D02*
X145300701Y-121902207D01*
X146011921Y-117116803D02*
X146456430Y-116672294D01*
X145300701Y-121902207D02*
X145656311Y-121546597D01*
X145656311Y-121546597D02*
X145656311Y-119509505D01*
X147218382Y-94093326D02*
X147695450Y-93616256D01*
X145656311Y-119509505D02*
X146011921Y-119153895D01*
X146456430Y-116672294D02*
X146456430Y-114635202D01*
X147218382Y-113873250D02*
X147218382Y-94093326D01*
X146456430Y-114635202D02*
X147218382Y-113873250D01*
X144272000Y-132588000D02*
X145300701Y-131559299D01*
X145300701Y-131559299D02*
X145300701Y-129522207D01*
X145300701Y-129522207D02*
X145656311Y-129166597D01*
X145656311Y-129166597D02*
X145656311Y-127337799D01*
X147777200Y-114823156D02*
X148323299Y-114277057D01*
X148590001Y-95249999D02*
X149352000Y-94488000D01*
X145656311Y-127337799D02*
X146011921Y-126982189D01*
X146723141Y-119951399D02*
X147078751Y-119595789D01*
X146011921Y-126982189D02*
X146011921Y-124736803D01*
X147078751Y-117558697D02*
X147523260Y-117114188D01*
X146011921Y-124736803D02*
X146367531Y-124381193D01*
X146367531Y-122344101D02*
X146723141Y-121988491D01*
X146367531Y-124381193D02*
X146367531Y-122344101D01*
X146723141Y-121988491D02*
X146723141Y-119951399D01*
X147078751Y-119595789D02*
X147078751Y-117558697D01*
X147523260Y-115114262D02*
X147777200Y-114860322D01*
X147523260Y-117114188D02*
X147523260Y-115114262D01*
X147777200Y-114860322D02*
X147777200Y-114823156D01*
X148323299Y-114277057D02*
X148323299Y-95516701D01*
X148323299Y-95516701D02*
X148590001Y-95249999D01*
X151611853Y-126466600D02*
X158013400Y-126466600D01*
X158013400Y-126466600D02*
X159512000Y-124968000D01*
X150952201Y-126238000D02*
X151383253Y-126238000D01*
X151383253Y-126238000D02*
X151611853Y-126466600D01*
X151307811Y-125450597D02*
X151968204Y-126110990D01*
X151968204Y-126110990D02*
X157866102Y-126110990D01*
X157866102Y-126110990D02*
X158483299Y-125493793D01*
X158483299Y-125493793D02*
X158483299Y-123456701D01*
X158483299Y-123456701D02*
X158750001Y-123189999D01*
X158750001Y-123189999D02*
X159512000Y-122428000D01*
X153938223Y-123939299D02*
X155143200Y-123939299D01*
X159512000Y-114808000D02*
X156286200Y-118033800D01*
X156286200Y-118033800D02*
X156286200Y-122796299D01*
X156286200Y-122796299D02*
X155143200Y-123939299D01*
X151663421Y-124673565D02*
X153203957Y-124673565D01*
X153203957Y-124673565D02*
X153938223Y-123939299D01*
X147574000Y-141630400D02*
X145300701Y-139357101D01*
X145300701Y-139357101D02*
X145300701Y-136124685D01*
X145300701Y-136124685D02*
X145752057Y-135673329D01*
X145752057Y-135673329D02*
X145752057Y-134444462D01*
X145752057Y-134444462D02*
X145975433Y-134221086D01*
X151638000Y-141630400D02*
X151638000Y-142817200D01*
X151638000Y-142817200D02*
X151673600Y-142852800D01*
X160121600Y-70408800D02*
X150190200Y-70408800D01*
X150190200Y-70408800D02*
X146939000Y-73660000D01*
X161061409Y-71348609D02*
X160121600Y-70408800D01*
X161061409Y-76555591D02*
X161061409Y-71348609D01*
X160896311Y-83446597D02*
X161061409Y-83281499D01*
X161061409Y-83281499D02*
X161061409Y-76555591D01*
X159512000Y-89408000D02*
X160896310Y-88023690D01*
X160896310Y-88023690D02*
X160896311Y-83446597D01*
X151587200Y-74345800D02*
X159334200Y-74345800D01*
X159334200Y-74345800D02*
X159512000Y-74168000D01*
X159511283Y-74167283D02*
X159512000Y-74168000D01*
X150466775Y-74346460D02*
X150466775Y-73915408D01*
X150466775Y-73915408D02*
X152754183Y-71628000D01*
X152754183Y-71628000D02*
X158434370Y-71628000D01*
X158434370Y-71628000D02*
X159512000Y-71628000D01*
M02*
