G04 #@! TF.FileFunction,Legend,Top*
%FSLAX46Y46*%
G04 Gerber Fmt 4.6, Leading zero omitted, Abs format (unit mm)*
G04 Created by KiCad (PCBNEW 4.0.7-e2-6376~58~ubuntu16.04.1) date Tue Apr  3 20:01:17 2018*
%MOMM*%
%LPD*%
G01*
G04 APERTURE LIST*
%ADD10C,0.203200*%
%ADD11C,0.177800*%
%ADD12C,0.254000*%
%ADD13C,0.150000*%
%ADD14C,0.010000*%
G04 APERTURE END LIST*
D10*
X146833167Y-139022665D02*
X145944167Y-139022665D01*
X146790833Y-139022665D02*
X146833167Y-139107332D01*
X146833167Y-139276665D01*
X146790833Y-139361332D01*
X146748500Y-139403665D01*
X146663833Y-139445999D01*
X146409833Y-139445999D01*
X146325167Y-139403665D01*
X146282833Y-139361332D01*
X146240500Y-139276665D01*
X146240500Y-139107332D01*
X146282833Y-139022665D01*
X146833167Y-138599332D02*
X145944167Y-138599332D01*
X146282833Y-138599332D02*
X146240500Y-138514666D01*
X146240500Y-138345332D01*
X146282833Y-138260666D01*
X146325167Y-138218332D01*
X146409833Y-138175999D01*
X146663833Y-138175999D01*
X146748500Y-138218332D01*
X146790833Y-138260666D01*
X146833167Y-138345332D01*
X146833167Y-138514666D01*
X146790833Y-138599332D01*
X146494500Y-137794999D02*
X146494500Y-137117666D01*
X146790833Y-136355666D02*
X146833167Y-136440332D01*
X146833167Y-136609666D01*
X146790833Y-136694332D01*
X146706167Y-136736666D01*
X146367500Y-136736666D01*
X146282833Y-136694332D01*
X146240500Y-136609666D01*
X146240500Y-136440332D01*
X146282833Y-136355666D01*
X146367500Y-136313332D01*
X146452167Y-136313332D01*
X146536833Y-136736666D01*
X146833167Y-135805332D02*
X146790833Y-135889999D01*
X146706167Y-135932332D01*
X145944167Y-135932332D01*
X146790833Y-135127999D02*
X146833167Y-135212665D01*
X146833167Y-135381999D01*
X146790833Y-135466665D01*
X146706167Y-135508999D01*
X146367500Y-135508999D01*
X146282833Y-135466665D01*
X146240500Y-135381999D01*
X146240500Y-135212665D01*
X146282833Y-135127999D01*
X146367500Y-135085665D01*
X146452167Y-135085665D01*
X146536833Y-135508999D01*
X146790833Y-134323665D02*
X146833167Y-134408332D01*
X146833167Y-134577665D01*
X146790833Y-134662332D01*
X146748500Y-134704665D01*
X146663833Y-134746999D01*
X146409833Y-134746999D01*
X146325167Y-134704665D01*
X146282833Y-134662332D01*
X146240500Y-134577665D01*
X146240500Y-134408332D01*
X146282833Y-134323665D01*
X146240500Y-134069665D02*
X146240500Y-133730999D01*
X145944167Y-133942665D02*
X146706167Y-133942665D01*
X146790833Y-133900332D01*
X146833167Y-133815665D01*
X146833167Y-133730999D01*
X146833167Y-133434665D02*
X146240500Y-133434665D01*
X146409833Y-133434665D02*
X146325167Y-133392332D01*
X146282833Y-133349999D01*
X146240500Y-133265332D01*
X146240500Y-133180665D01*
X146833167Y-132757332D02*
X146790833Y-132841999D01*
X146748500Y-132884332D01*
X146663833Y-132926666D01*
X146409833Y-132926666D01*
X146325167Y-132884332D01*
X146282833Y-132841999D01*
X146240500Y-132757332D01*
X146240500Y-132630332D01*
X146282833Y-132545666D01*
X146325167Y-132503332D01*
X146409833Y-132460999D01*
X146663833Y-132460999D01*
X146748500Y-132503332D01*
X146790833Y-132545666D01*
X146833167Y-132630332D01*
X146833167Y-132757332D01*
X146240500Y-132079999D02*
X146833167Y-132079999D01*
X146325167Y-132079999D02*
X146282833Y-132037666D01*
X146240500Y-131952999D01*
X146240500Y-131825999D01*
X146282833Y-131741333D01*
X146367500Y-131698999D01*
X146833167Y-131698999D01*
X146833167Y-131275666D02*
X146240500Y-131275666D01*
X145944167Y-131275666D02*
X145986500Y-131318000D01*
X146028833Y-131275666D01*
X145986500Y-131233333D01*
X145944167Y-131275666D01*
X146028833Y-131275666D01*
X146790833Y-130471333D02*
X146833167Y-130556000D01*
X146833167Y-130725333D01*
X146790833Y-130810000D01*
X146748500Y-130852333D01*
X146663833Y-130894667D01*
X146409833Y-130894667D01*
X146325167Y-130852333D01*
X146282833Y-130810000D01*
X146240500Y-130725333D01*
X146240500Y-130556000D01*
X146282833Y-130471333D01*
X146790833Y-130132667D02*
X146833167Y-130048000D01*
X146833167Y-129878667D01*
X146790833Y-129794000D01*
X146706167Y-129751667D01*
X146663833Y-129751667D01*
X146579167Y-129794000D01*
X146536833Y-129878667D01*
X146536833Y-130005667D01*
X146494500Y-130090333D01*
X146409833Y-130132667D01*
X146367500Y-130132667D01*
X146282833Y-130090333D01*
X146240500Y-130005667D01*
X146240500Y-129878667D01*
X146282833Y-129794000D01*
X146748500Y-129370666D02*
X146790833Y-129328333D01*
X146833167Y-129370666D01*
X146790833Y-129413000D01*
X146748500Y-129370666D01*
X146833167Y-129370666D01*
X146790833Y-128566333D02*
X146833167Y-128651000D01*
X146833167Y-128820333D01*
X146790833Y-128905000D01*
X146748500Y-128947333D01*
X146663833Y-128989667D01*
X146409833Y-128989667D01*
X146325167Y-128947333D01*
X146282833Y-128905000D01*
X146240500Y-128820333D01*
X146240500Y-128651000D01*
X146282833Y-128566333D01*
X146833167Y-127804333D02*
X146367500Y-127804333D01*
X146282833Y-127846667D01*
X146240500Y-127931333D01*
X146240500Y-128100667D01*
X146282833Y-128185333D01*
X146790833Y-127804333D02*
X146833167Y-127889000D01*
X146833167Y-128100667D01*
X146790833Y-128185333D01*
X146706167Y-128227667D01*
X146621500Y-128227667D01*
X146536833Y-128185333D01*
X146494500Y-128100667D01*
X146494500Y-127889000D01*
X146452167Y-127804333D01*
X146748500Y-108690832D02*
X146790833Y-108733166D01*
X146833167Y-108860166D01*
X146833167Y-108944832D01*
X146790833Y-109071832D01*
X146706167Y-109156499D01*
X146621500Y-109198832D01*
X146452167Y-109241166D01*
X146325167Y-109241166D01*
X146155833Y-109198832D01*
X146071167Y-109156499D01*
X145986500Y-109071832D01*
X145944167Y-108944832D01*
X145944167Y-108860166D01*
X145986500Y-108733166D01*
X146028833Y-108690832D01*
X146833167Y-108182832D02*
X146790833Y-108267499D01*
X146748500Y-108309832D01*
X146663833Y-108352166D01*
X146409833Y-108352166D01*
X146325167Y-108309832D01*
X146282833Y-108267499D01*
X146240500Y-108182832D01*
X146240500Y-108055832D01*
X146282833Y-107971166D01*
X146325167Y-107928832D01*
X146409833Y-107886499D01*
X146663833Y-107886499D01*
X146748500Y-107928832D01*
X146790833Y-107971166D01*
X146833167Y-108055832D01*
X146833167Y-108182832D01*
X146833167Y-107505499D02*
X146240500Y-107505499D01*
X146325167Y-107505499D02*
X146282833Y-107463166D01*
X146240500Y-107378499D01*
X146240500Y-107251499D01*
X146282833Y-107166833D01*
X146367500Y-107124499D01*
X146833167Y-107124499D01*
X146367500Y-107124499D02*
X146282833Y-107082166D01*
X146240500Y-106997499D01*
X146240500Y-106870499D01*
X146282833Y-106785833D01*
X146367500Y-106743499D01*
X146833167Y-106743499D01*
X146833167Y-106320166D02*
X146240500Y-106320166D01*
X146325167Y-106320166D02*
X146282833Y-106277833D01*
X146240500Y-106193166D01*
X146240500Y-106066166D01*
X146282833Y-105981500D01*
X146367500Y-105939166D01*
X146833167Y-105939166D01*
X146367500Y-105939166D02*
X146282833Y-105896833D01*
X146240500Y-105812166D01*
X146240500Y-105685166D01*
X146282833Y-105600500D01*
X146367500Y-105558166D01*
X146833167Y-105558166D01*
X146833167Y-105007833D02*
X146790833Y-105092500D01*
X146748500Y-105134833D01*
X146663833Y-105177167D01*
X146409833Y-105177167D01*
X146325167Y-105134833D01*
X146282833Y-105092500D01*
X146240500Y-105007833D01*
X146240500Y-104880833D01*
X146282833Y-104796167D01*
X146325167Y-104753833D01*
X146409833Y-104711500D01*
X146663833Y-104711500D01*
X146748500Y-104753833D01*
X146790833Y-104796167D01*
X146833167Y-104880833D01*
X146833167Y-105007833D01*
X146833167Y-103949500D02*
X145944167Y-103949500D01*
X146790833Y-103949500D02*
X146833167Y-104034167D01*
X146833167Y-104203500D01*
X146790833Y-104288167D01*
X146748500Y-104330500D01*
X146663833Y-104372834D01*
X146409833Y-104372834D01*
X146325167Y-104330500D01*
X146282833Y-104288167D01*
X146240500Y-104203500D01*
X146240500Y-104034167D01*
X146282833Y-103949500D01*
X146833167Y-103399167D02*
X146790833Y-103483834D01*
X146748500Y-103526167D01*
X146663833Y-103568501D01*
X146409833Y-103568501D01*
X146325167Y-103526167D01*
X146282833Y-103483834D01*
X146240500Y-103399167D01*
X146240500Y-103272167D01*
X146282833Y-103187501D01*
X146325167Y-103145167D01*
X146409833Y-103102834D01*
X146663833Y-103102834D01*
X146748500Y-103145167D01*
X146790833Y-103187501D01*
X146833167Y-103272167D01*
X146833167Y-103399167D01*
X146833167Y-102721834D02*
X146240500Y-102721834D01*
X146409833Y-102721834D02*
X146325167Y-102679501D01*
X146282833Y-102637168D01*
X146240500Y-102552501D01*
X146240500Y-102467834D01*
X146790833Y-101832835D02*
X146833167Y-101917501D01*
X146833167Y-102086835D01*
X146790833Y-102171501D01*
X146706167Y-102213835D01*
X146367500Y-102213835D01*
X146282833Y-102171501D01*
X146240500Y-102086835D01*
X146240500Y-101917501D01*
X146282833Y-101832835D01*
X146367500Y-101790501D01*
X146452167Y-101790501D01*
X146536833Y-102213835D01*
X145944167Y-100351168D02*
X145944167Y-100520502D01*
X145986500Y-100605168D01*
X146028833Y-100647502D01*
X146155833Y-100732168D01*
X146325167Y-100774502D01*
X146663833Y-100774502D01*
X146748500Y-100732168D01*
X146790833Y-100689835D01*
X146833167Y-100605168D01*
X146833167Y-100435835D01*
X146790833Y-100351168D01*
X146748500Y-100308835D01*
X146663833Y-100266502D01*
X146452167Y-100266502D01*
X146367500Y-100308835D01*
X146325167Y-100351168D01*
X146282833Y-100435835D01*
X146282833Y-100605168D01*
X146325167Y-100689835D01*
X146367500Y-100732168D01*
X146452167Y-100774502D01*
X146240500Y-99504501D02*
X146833167Y-99504501D01*
X145901833Y-99716168D02*
X146536833Y-99927835D01*
X146536833Y-99377501D01*
X145944167Y-98361501D02*
X146663833Y-98361501D01*
X146748500Y-98319168D01*
X146790833Y-98276835D01*
X146833167Y-98192168D01*
X146833167Y-98022835D01*
X146790833Y-97938168D01*
X146748500Y-97895835D01*
X146663833Y-97853501D01*
X145944167Y-97853501D01*
X146833167Y-97430168D02*
X145944167Y-97430168D01*
X146579167Y-97133835D01*
X145944167Y-96837502D01*
X146833167Y-96837502D01*
X146833167Y-96414168D02*
X145944167Y-96414168D01*
X145944167Y-96202502D01*
X145986500Y-96075502D01*
X146071167Y-95990835D01*
X146155833Y-95948502D01*
X146325167Y-95906168D01*
X146452167Y-95906168D01*
X146621500Y-95948502D01*
X146706167Y-95990835D01*
X146790833Y-96075502D01*
X146833167Y-96202502D01*
X146833167Y-96414168D01*
X146579167Y-94890169D02*
X146579167Y-94466835D01*
X146833167Y-94974835D02*
X145944167Y-94678502D01*
X146833167Y-94382169D01*
X146833167Y-93704835D02*
X145944167Y-93704835D01*
X146790833Y-93704835D02*
X146833167Y-93789502D01*
X146833167Y-93958835D01*
X146790833Y-94043502D01*
X146748500Y-94085835D01*
X146663833Y-94128169D01*
X146409833Y-94128169D01*
X146325167Y-94085835D01*
X146282833Y-94043502D01*
X146240500Y-93958835D01*
X146240500Y-93789502D01*
X146282833Y-93704835D01*
X146833167Y-92900502D02*
X146367500Y-92900502D01*
X146282833Y-92942836D01*
X146240500Y-93027502D01*
X146240500Y-93196836D01*
X146282833Y-93281502D01*
X146790833Y-92900502D02*
X146833167Y-92985169D01*
X146833167Y-93196836D01*
X146790833Y-93281502D01*
X146706167Y-93323836D01*
X146621500Y-93323836D01*
X146536833Y-93281502D01*
X146494500Y-93196836D01*
X146494500Y-92985169D01*
X146452167Y-92900502D01*
X146240500Y-92477169D02*
X147129500Y-92477169D01*
X146282833Y-92477169D02*
X146240500Y-92392503D01*
X146240500Y-92223169D01*
X146282833Y-92138503D01*
X146325167Y-92096169D01*
X146409833Y-92053836D01*
X146663833Y-92053836D01*
X146748500Y-92096169D01*
X146790833Y-92138503D01*
X146833167Y-92223169D01*
X146833167Y-92392503D01*
X146790833Y-92477169D01*
X146240500Y-91799836D02*
X146240500Y-91461170D01*
X145944167Y-91672836D02*
X146706167Y-91672836D01*
X146790833Y-91630503D01*
X146833167Y-91545836D01*
X146833167Y-91461170D01*
X146790833Y-90826170D02*
X146833167Y-90910836D01*
X146833167Y-91080170D01*
X146790833Y-91164836D01*
X146706167Y-91207170D01*
X146367500Y-91207170D01*
X146282833Y-91164836D01*
X146240500Y-91080170D01*
X146240500Y-90910836D01*
X146282833Y-90826170D01*
X146367500Y-90783836D01*
X146452167Y-90783836D01*
X146536833Y-91207170D01*
X146833167Y-90402836D02*
X146240500Y-90402836D01*
X146409833Y-90402836D02*
X146325167Y-90360503D01*
X146282833Y-90318170D01*
X146240500Y-90233503D01*
X146240500Y-90148836D01*
X145944167Y-89005837D02*
X145944167Y-88921170D01*
X145986500Y-88836504D01*
X146028833Y-88794170D01*
X146113500Y-88751837D01*
X146282833Y-88709504D01*
X146494500Y-88709504D01*
X146663833Y-88751837D01*
X146748500Y-88794170D01*
X146790833Y-88836504D01*
X146833167Y-88921170D01*
X146833167Y-89005837D01*
X146790833Y-89090504D01*
X146748500Y-89132837D01*
X146663833Y-89175170D01*
X146494500Y-89217504D01*
X146282833Y-89217504D01*
X146113500Y-89175170D01*
X146028833Y-89132837D01*
X145986500Y-89090504D01*
X145944167Y-89005837D01*
X146748500Y-88328503D02*
X146790833Y-88286170D01*
X146833167Y-88328503D01*
X146790833Y-88370837D01*
X146748500Y-88328503D01*
X146833167Y-88328503D01*
X146833167Y-87439504D02*
X146833167Y-87947504D01*
X146833167Y-87693504D02*
X145944167Y-87693504D01*
X146071167Y-87778170D01*
X146155833Y-87862837D01*
X146198167Y-87947504D01*
X146494500Y-86381170D02*
X146494500Y-85703837D01*
X146028833Y-84645504D02*
X145986500Y-84603170D01*
X145944167Y-84518504D01*
X145944167Y-84306837D01*
X145986500Y-84222170D01*
X146028833Y-84179837D01*
X146113500Y-84137504D01*
X146198167Y-84137504D01*
X146325167Y-84179837D01*
X146833167Y-84687837D01*
X146833167Y-84137504D01*
X145944167Y-83587170D02*
X145944167Y-83502503D01*
X145986500Y-83417837D01*
X146028833Y-83375503D01*
X146113500Y-83333170D01*
X146282833Y-83290837D01*
X146494500Y-83290837D01*
X146663833Y-83333170D01*
X146748500Y-83375503D01*
X146790833Y-83417837D01*
X146833167Y-83502503D01*
X146833167Y-83587170D01*
X146790833Y-83671837D01*
X146748500Y-83714170D01*
X146663833Y-83756503D01*
X146494500Y-83798837D01*
X146282833Y-83798837D01*
X146113500Y-83756503D01*
X146028833Y-83714170D01*
X145986500Y-83671837D01*
X145944167Y-83587170D01*
X146833167Y-82444170D02*
X146833167Y-82952170D01*
X146833167Y-82698170D02*
X145944167Y-82698170D01*
X146071167Y-82782836D01*
X146155833Y-82867503D01*
X146198167Y-82952170D01*
X146325167Y-81936169D02*
X146282833Y-82020836D01*
X146240500Y-82063169D01*
X146155833Y-82105503D01*
X146113500Y-82105503D01*
X146028833Y-82063169D01*
X145986500Y-82020836D01*
X145944167Y-81936169D01*
X145944167Y-81766836D01*
X145986500Y-81682169D01*
X146028833Y-81639836D01*
X146113500Y-81597503D01*
X146155833Y-81597503D01*
X146240500Y-81639836D01*
X146282833Y-81682169D01*
X146325167Y-81766836D01*
X146325167Y-81936169D01*
X146367500Y-82020836D01*
X146409833Y-82063169D01*
X146494500Y-82105503D01*
X146663833Y-82105503D01*
X146748500Y-82063169D01*
X146790833Y-82020836D01*
X146833167Y-81936169D01*
X146833167Y-81766836D01*
X146790833Y-81682169D01*
X146748500Y-81639836D01*
X146663833Y-81597503D01*
X146494500Y-81597503D01*
X146409833Y-81639836D01*
X146367500Y-81682169D01*
X146325167Y-81766836D01*
X145944167Y-81047169D02*
X145944167Y-80962502D01*
X145986500Y-80877836D01*
X146028833Y-80835502D01*
X146113500Y-80793169D01*
X146282833Y-80750836D01*
X146494500Y-80750836D01*
X146663833Y-80793169D01*
X146748500Y-80835502D01*
X146790833Y-80877836D01*
X146833167Y-80962502D01*
X146833167Y-81047169D01*
X146790833Y-81131836D01*
X146748500Y-81174169D01*
X146663833Y-81216502D01*
X146494500Y-81258836D01*
X146282833Y-81258836D01*
X146113500Y-81216502D01*
X146028833Y-81174169D01*
X145986500Y-81131836D01*
X145944167Y-81047169D01*
X145944167Y-80454502D02*
X145944167Y-79904169D01*
X146282833Y-80200502D01*
X146282833Y-80073502D01*
X146325167Y-79988835D01*
X146367500Y-79946502D01*
X146452167Y-79904169D01*
X146663833Y-79904169D01*
X146748500Y-79946502D01*
X146790833Y-79988835D01*
X146833167Y-80073502D01*
X146833167Y-80327502D01*
X146790833Y-80412169D01*
X146748500Y-80454502D01*
X146028833Y-79565502D02*
X145986500Y-79523168D01*
X145944167Y-79438502D01*
X145944167Y-79226835D01*
X145986500Y-79142168D01*
X146028833Y-79099835D01*
X146113500Y-79057502D01*
X146198167Y-79057502D01*
X146325167Y-79099835D01*
X146833167Y-79607835D01*
X146833167Y-79057502D01*
X146325167Y-78549501D02*
X146282833Y-78634168D01*
X146240500Y-78676501D01*
X146155833Y-78718835D01*
X146113500Y-78718835D01*
X146028833Y-78676501D01*
X145986500Y-78634168D01*
X145944167Y-78549501D01*
X145944167Y-78380168D01*
X145986500Y-78295501D01*
X146028833Y-78253168D01*
X146113500Y-78210835D01*
X146155833Y-78210835D01*
X146240500Y-78253168D01*
X146282833Y-78295501D01*
X146325167Y-78380168D01*
X146325167Y-78549501D01*
X146367500Y-78634168D01*
X146409833Y-78676501D01*
X146494500Y-78718835D01*
X146663833Y-78718835D01*
X146748500Y-78676501D01*
X146790833Y-78634168D01*
X146833167Y-78549501D01*
X146833167Y-78380168D01*
X146790833Y-78295501D01*
X146748500Y-78253168D01*
X146663833Y-78210835D01*
X146494500Y-78210835D01*
X146409833Y-78253168D01*
X146367500Y-78295501D01*
X146325167Y-78380168D01*
X146579167Y-77872168D02*
X146579167Y-77448834D01*
X146833167Y-77956834D02*
X145944167Y-77660501D01*
X146833167Y-77364168D01*
X157755167Y-139534896D02*
X156866167Y-139534896D01*
X157755167Y-139153896D02*
X157289500Y-139153896D01*
X157204833Y-139196230D01*
X157162500Y-139280896D01*
X157162500Y-139407896D01*
X157204833Y-139492563D01*
X157247167Y-139534896D01*
X157162500Y-138857563D02*
X157162500Y-138518897D01*
X156866167Y-138730563D02*
X157628167Y-138730563D01*
X157712833Y-138688230D01*
X157755167Y-138603563D01*
X157755167Y-138518897D01*
X157162500Y-138349563D02*
X157162500Y-138010897D01*
X156866167Y-138222563D02*
X157628167Y-138222563D01*
X157712833Y-138180230D01*
X157755167Y-138095563D01*
X157755167Y-138010897D01*
X157162500Y-137714563D02*
X158051500Y-137714563D01*
X157204833Y-137714563D02*
X157162500Y-137629897D01*
X157162500Y-137460563D01*
X157204833Y-137375897D01*
X157247167Y-137333563D01*
X157331833Y-137291230D01*
X157585833Y-137291230D01*
X157670500Y-137333563D01*
X157712833Y-137375897D01*
X157755167Y-137460563D01*
X157755167Y-137629897D01*
X157712833Y-137714563D01*
X157712833Y-136952564D02*
X157755167Y-136867897D01*
X157755167Y-136698564D01*
X157712833Y-136613897D01*
X157628167Y-136571564D01*
X157585833Y-136571564D01*
X157501167Y-136613897D01*
X157458833Y-136698564D01*
X157458833Y-136825564D01*
X157416500Y-136910230D01*
X157331833Y-136952564D01*
X157289500Y-136952564D01*
X157204833Y-136910230D01*
X157162500Y-136825564D01*
X157162500Y-136698564D01*
X157204833Y-136613897D01*
X157670500Y-136190563D02*
X157712833Y-136148230D01*
X157755167Y-136190563D01*
X157712833Y-136232897D01*
X157670500Y-136190563D01*
X157755167Y-136190563D01*
X157204833Y-136190563D02*
X157247167Y-136148230D01*
X157289500Y-136190563D01*
X157247167Y-136232897D01*
X157204833Y-136190563D01*
X157289500Y-136190563D01*
X156823833Y-135132230D02*
X157966833Y-135894230D01*
X156823833Y-134200897D02*
X157966833Y-134962897D01*
X157162500Y-133523564D02*
X157882167Y-133523564D01*
X157966833Y-133565898D01*
X158009167Y-133608231D01*
X158051500Y-133692898D01*
X158051500Y-133819898D01*
X158009167Y-133904564D01*
X157712833Y-133523564D02*
X157755167Y-133608231D01*
X157755167Y-133777564D01*
X157712833Y-133862231D01*
X157670500Y-133904564D01*
X157585833Y-133946898D01*
X157331833Y-133946898D01*
X157247167Y-133904564D01*
X157204833Y-133862231D01*
X157162500Y-133777564D01*
X157162500Y-133608231D01*
X157204833Y-133523564D01*
X157755167Y-133100231D02*
X157162500Y-133100231D01*
X156866167Y-133100231D02*
X156908500Y-133142565D01*
X156950833Y-133100231D01*
X156908500Y-133057898D01*
X156866167Y-133100231D01*
X156950833Y-133100231D01*
X157162500Y-132803898D02*
X157162500Y-132465232D01*
X156866167Y-132676898D02*
X157628167Y-132676898D01*
X157712833Y-132634565D01*
X157755167Y-132549898D01*
X157755167Y-132465232D01*
X157755167Y-132168898D02*
X156866167Y-132168898D01*
X157755167Y-131787898D02*
X157289500Y-131787898D01*
X157204833Y-131830232D01*
X157162500Y-131914898D01*
X157162500Y-132041898D01*
X157204833Y-132126565D01*
X157247167Y-132168898D01*
X157162500Y-130983565D02*
X157755167Y-130983565D01*
X157162500Y-131364565D02*
X157628167Y-131364565D01*
X157712833Y-131322232D01*
X157755167Y-131237565D01*
X157755167Y-131110565D01*
X157712833Y-131025899D01*
X157670500Y-130983565D01*
X157755167Y-130560232D02*
X156866167Y-130560232D01*
X157204833Y-130560232D02*
X157162500Y-130475566D01*
X157162500Y-130306232D01*
X157204833Y-130221566D01*
X157247167Y-130179232D01*
X157331833Y-130136899D01*
X157585833Y-130136899D01*
X157670500Y-130179232D01*
X157712833Y-130221566D01*
X157755167Y-130306232D01*
X157755167Y-130475566D01*
X157712833Y-130560232D01*
X157670500Y-129755899D02*
X157712833Y-129713566D01*
X157755167Y-129755899D01*
X157712833Y-129798233D01*
X157670500Y-129755899D01*
X157755167Y-129755899D01*
X157712833Y-128951566D02*
X157755167Y-129036233D01*
X157755167Y-129205566D01*
X157712833Y-129290233D01*
X157670500Y-129332566D01*
X157585833Y-129374900D01*
X157331833Y-129374900D01*
X157247167Y-129332566D01*
X157204833Y-129290233D01*
X157162500Y-129205566D01*
X157162500Y-129036233D01*
X157204833Y-128951566D01*
X157755167Y-128443566D02*
X157712833Y-128528233D01*
X157670500Y-128570566D01*
X157585833Y-128612900D01*
X157331833Y-128612900D01*
X157247167Y-128570566D01*
X157204833Y-128528233D01*
X157162500Y-128443566D01*
X157162500Y-128316566D01*
X157204833Y-128231900D01*
X157247167Y-128189566D01*
X157331833Y-128147233D01*
X157585833Y-128147233D01*
X157670500Y-128189566D01*
X157712833Y-128231900D01*
X157755167Y-128316566D01*
X157755167Y-128443566D01*
X157755167Y-127766233D02*
X157162500Y-127766233D01*
X157247167Y-127766233D02*
X157204833Y-127723900D01*
X157162500Y-127639233D01*
X157162500Y-127512233D01*
X157204833Y-127427567D01*
X157289500Y-127385233D01*
X157755167Y-127385233D01*
X157289500Y-127385233D02*
X157204833Y-127342900D01*
X157162500Y-127258233D01*
X157162500Y-127131233D01*
X157204833Y-127046567D01*
X157289500Y-127004233D01*
X157755167Y-127004233D01*
X156823833Y-125945900D02*
X157966833Y-126707900D01*
X157755167Y-125268567D02*
X156866167Y-125268567D01*
X157712833Y-125268567D02*
X157755167Y-125353234D01*
X157755167Y-125522567D01*
X157712833Y-125607234D01*
X157670500Y-125649567D01*
X157585833Y-125691901D01*
X157331833Y-125691901D01*
X157247167Y-125649567D01*
X157204833Y-125607234D01*
X157162500Y-125522567D01*
X157162500Y-125353234D01*
X157204833Y-125268567D01*
X157755167Y-124845234D02*
X156866167Y-124845234D01*
X157204833Y-124845234D02*
X157162500Y-124760568D01*
X157162500Y-124591234D01*
X157204833Y-124506568D01*
X157247167Y-124464234D01*
X157331833Y-124421901D01*
X157585833Y-124421901D01*
X157670500Y-124464234D01*
X157712833Y-124506568D01*
X157755167Y-124591234D01*
X157755167Y-124760568D01*
X157712833Y-124845234D01*
X157416500Y-124040901D02*
X157416500Y-123363568D01*
X157712833Y-122601568D02*
X157755167Y-122686234D01*
X157755167Y-122855568D01*
X157712833Y-122940234D01*
X157628167Y-122982568D01*
X157289500Y-122982568D01*
X157204833Y-122940234D01*
X157162500Y-122855568D01*
X157162500Y-122686234D01*
X157204833Y-122601568D01*
X157289500Y-122559234D01*
X157374167Y-122559234D01*
X157458833Y-122982568D01*
X157755167Y-122051234D02*
X157712833Y-122135901D01*
X157628167Y-122178234D01*
X156866167Y-122178234D01*
X157712833Y-121373901D02*
X157755167Y-121458567D01*
X157755167Y-121627901D01*
X157712833Y-121712567D01*
X157628167Y-121754901D01*
X157289500Y-121754901D01*
X157204833Y-121712567D01*
X157162500Y-121627901D01*
X157162500Y-121458567D01*
X157204833Y-121373901D01*
X157289500Y-121331567D01*
X157374167Y-121331567D01*
X157458833Y-121754901D01*
X157712833Y-120569567D02*
X157755167Y-120654234D01*
X157755167Y-120823567D01*
X157712833Y-120908234D01*
X157670500Y-120950567D01*
X157585833Y-120992901D01*
X157331833Y-120992901D01*
X157247167Y-120950567D01*
X157204833Y-120908234D01*
X157162500Y-120823567D01*
X157162500Y-120654234D01*
X157204833Y-120569567D01*
X157162500Y-120315567D02*
X157162500Y-119976901D01*
X156866167Y-120188567D02*
X157628167Y-120188567D01*
X157712833Y-120146234D01*
X157755167Y-120061567D01*
X157755167Y-119976901D01*
X157755167Y-119680567D02*
X157162500Y-119680567D01*
X157331833Y-119680567D02*
X157247167Y-119638234D01*
X157204833Y-119595901D01*
X157162500Y-119511234D01*
X157162500Y-119426567D01*
X157755167Y-119003234D02*
X157712833Y-119087901D01*
X157670500Y-119130234D01*
X157585833Y-119172568D01*
X157331833Y-119172568D01*
X157247167Y-119130234D01*
X157204833Y-119087901D01*
X157162500Y-119003234D01*
X157162500Y-118876234D01*
X157204833Y-118791568D01*
X157247167Y-118749234D01*
X157331833Y-118706901D01*
X157585833Y-118706901D01*
X157670500Y-118749234D01*
X157712833Y-118791568D01*
X157755167Y-118876234D01*
X157755167Y-119003234D01*
X157162500Y-118325901D02*
X157755167Y-118325901D01*
X157247167Y-118325901D02*
X157204833Y-118283568D01*
X157162500Y-118198901D01*
X157162500Y-118071901D01*
X157204833Y-117987235D01*
X157289500Y-117944901D01*
X157755167Y-117944901D01*
X157755167Y-117521568D02*
X157162500Y-117521568D01*
X156866167Y-117521568D02*
X156908500Y-117563902D01*
X156950833Y-117521568D01*
X156908500Y-117479235D01*
X156866167Y-117521568D01*
X156950833Y-117521568D01*
X157712833Y-116717235D02*
X157755167Y-116801902D01*
X157755167Y-116971235D01*
X157712833Y-117055902D01*
X157670500Y-117098235D01*
X157585833Y-117140569D01*
X157331833Y-117140569D01*
X157247167Y-117098235D01*
X157204833Y-117055902D01*
X157162500Y-116971235D01*
X157162500Y-116801902D01*
X157204833Y-116717235D01*
X157712833Y-116378569D02*
X157755167Y-116293902D01*
X157755167Y-116124569D01*
X157712833Y-116039902D01*
X157628167Y-115997569D01*
X157585833Y-115997569D01*
X157501167Y-116039902D01*
X157458833Y-116124569D01*
X157458833Y-116251569D01*
X157416500Y-116336235D01*
X157331833Y-116378569D01*
X157289500Y-116378569D01*
X157204833Y-116336235D01*
X157162500Y-116251569D01*
X157162500Y-116124569D01*
X157204833Y-116039902D01*
X156823833Y-114981568D02*
X157966833Y-115743568D01*
X157162500Y-114304235D02*
X157755167Y-114304235D01*
X157162500Y-114685235D02*
X157628167Y-114685235D01*
X157712833Y-114642902D01*
X157755167Y-114558235D01*
X157755167Y-114431235D01*
X157712833Y-114346569D01*
X157670500Y-114304235D01*
X157755167Y-113880902D02*
X157162500Y-113880902D01*
X157247167Y-113880902D02*
X157204833Y-113838569D01*
X157162500Y-113753902D01*
X157162500Y-113626902D01*
X157204833Y-113542236D01*
X157289500Y-113499902D01*
X157755167Y-113499902D01*
X157289500Y-113499902D02*
X157204833Y-113457569D01*
X157162500Y-113372902D01*
X157162500Y-113245902D01*
X157204833Y-113161236D01*
X157289500Y-113118902D01*
X157755167Y-113118902D01*
X157755167Y-112314569D02*
X156866167Y-112314569D01*
X157712833Y-112314569D02*
X157755167Y-112399236D01*
X157755167Y-112568569D01*
X157712833Y-112653236D01*
X157670500Y-112695569D01*
X157585833Y-112737903D01*
X157331833Y-112737903D01*
X157247167Y-112695569D01*
X157204833Y-112653236D01*
X157162500Y-112568569D01*
X157162500Y-112399236D01*
X157204833Y-112314569D01*
X157416500Y-111891236D02*
X157416500Y-111213903D01*
X157712833Y-110409569D02*
X157755167Y-110494236D01*
X157755167Y-110663569D01*
X157712833Y-110748236D01*
X157670500Y-110790569D01*
X157585833Y-110832903D01*
X157331833Y-110832903D01*
X157247167Y-110790569D01*
X157204833Y-110748236D01*
X157162500Y-110663569D01*
X157162500Y-110494236D01*
X157204833Y-110409569D01*
X156866167Y-109647569D02*
X156866167Y-109816903D01*
X156908500Y-109901569D01*
X156950833Y-109943903D01*
X157077833Y-110028569D01*
X157247167Y-110070903D01*
X157585833Y-110070903D01*
X157670500Y-110028569D01*
X157712833Y-109986236D01*
X157755167Y-109901569D01*
X157755167Y-109732236D01*
X157712833Y-109647569D01*
X157670500Y-109605236D01*
X157585833Y-109562903D01*
X157374167Y-109562903D01*
X157289500Y-109605236D01*
X157247167Y-109647569D01*
X157204833Y-109732236D01*
X157204833Y-109901569D01*
X157247167Y-109986236D01*
X157289500Y-110028569D01*
X157374167Y-110070903D01*
X157162500Y-108800902D02*
X157755167Y-108800902D01*
X156823833Y-109012569D02*
X157458833Y-109224236D01*
X157458833Y-108673902D01*
X157416500Y-108335235D02*
X157416500Y-107657902D01*
X157755167Y-106853568D02*
X157289500Y-106853568D01*
X157204833Y-106895902D01*
X157162500Y-106980568D01*
X157162500Y-107149902D01*
X157204833Y-107234568D01*
X157712833Y-106853568D02*
X157755167Y-106938235D01*
X157755167Y-107149902D01*
X157712833Y-107234568D01*
X157628167Y-107276902D01*
X157543500Y-107276902D01*
X157458833Y-107234568D01*
X157416500Y-107149902D01*
X157416500Y-106938235D01*
X157374167Y-106853568D01*
X157755167Y-106049235D02*
X156866167Y-106049235D01*
X157712833Y-106049235D02*
X157755167Y-106133902D01*
X157755167Y-106303235D01*
X157712833Y-106387902D01*
X157670500Y-106430235D01*
X157585833Y-106472569D01*
X157331833Y-106472569D01*
X157247167Y-106430235D01*
X157204833Y-106387902D01*
X157162500Y-106303235D01*
X157162500Y-106133902D01*
X157204833Y-106049235D01*
X157755167Y-105244902D02*
X157289500Y-105244902D01*
X157204833Y-105287236D01*
X157162500Y-105371902D01*
X157162500Y-105541236D01*
X157204833Y-105625902D01*
X157712833Y-105244902D02*
X157755167Y-105329569D01*
X157755167Y-105541236D01*
X157712833Y-105625902D01*
X157628167Y-105668236D01*
X157543500Y-105668236D01*
X157458833Y-105625902D01*
X157416500Y-105541236D01*
X157416500Y-105329569D01*
X157374167Y-105244902D01*
X157162500Y-104821569D02*
X158051500Y-104821569D01*
X157204833Y-104821569D02*
X157162500Y-104736903D01*
X157162500Y-104567569D01*
X157204833Y-104482903D01*
X157247167Y-104440569D01*
X157331833Y-104398236D01*
X157585833Y-104398236D01*
X157670500Y-104440569D01*
X157712833Y-104482903D01*
X157755167Y-104567569D01*
X157755167Y-104736903D01*
X157712833Y-104821569D01*
X157162500Y-104144236D02*
X157162500Y-103805570D01*
X156866167Y-104017236D02*
X157628167Y-104017236D01*
X157712833Y-103974903D01*
X157755167Y-103890236D01*
X157755167Y-103805570D01*
X157712833Y-103170570D02*
X157755167Y-103255236D01*
X157755167Y-103424570D01*
X157712833Y-103509236D01*
X157628167Y-103551570D01*
X157289500Y-103551570D01*
X157204833Y-103509236D01*
X157162500Y-103424570D01*
X157162500Y-103255236D01*
X157204833Y-103170570D01*
X157289500Y-103128236D01*
X157374167Y-103128236D01*
X157458833Y-103551570D01*
X157755167Y-102747236D02*
X157162500Y-102747236D01*
X157331833Y-102747236D02*
X157247167Y-102704903D01*
X157204833Y-102662570D01*
X157162500Y-102577903D01*
X157162500Y-102493236D01*
X157416500Y-102196903D02*
X157416500Y-101519570D01*
X157755167Y-101096236D02*
X156866167Y-101096236D01*
X157416500Y-101011570D02*
X157755167Y-100757570D01*
X157162500Y-100757570D02*
X157501167Y-101096236D01*
X157755167Y-100376569D02*
X157162500Y-100376569D01*
X156866167Y-100376569D02*
X156908500Y-100418903D01*
X156950833Y-100376569D01*
X156908500Y-100334236D01*
X156866167Y-100376569D01*
X156950833Y-100376569D01*
X157712833Y-99572236D02*
X157755167Y-99656903D01*
X157755167Y-99826236D01*
X157712833Y-99910903D01*
X157670500Y-99953236D01*
X157585833Y-99995570D01*
X157331833Y-99995570D01*
X157247167Y-99953236D01*
X157204833Y-99910903D01*
X157162500Y-99826236D01*
X157162500Y-99656903D01*
X157204833Y-99572236D01*
X157755167Y-98810236D02*
X157289500Y-98810236D01*
X157204833Y-98852570D01*
X157162500Y-98937236D01*
X157162500Y-99106570D01*
X157204833Y-99191236D01*
X157712833Y-98810236D02*
X157755167Y-98894903D01*
X157755167Y-99106570D01*
X157712833Y-99191236D01*
X157628167Y-99233570D01*
X157543500Y-99233570D01*
X157458833Y-99191236D01*
X157416500Y-99106570D01*
X157416500Y-98894903D01*
X157374167Y-98810236D01*
X157755167Y-98005903D02*
X156866167Y-98005903D01*
X157712833Y-98005903D02*
X157755167Y-98090570D01*
X157755167Y-98259903D01*
X157712833Y-98344570D01*
X157670500Y-98386903D01*
X157585833Y-98429237D01*
X157331833Y-98429237D01*
X157247167Y-98386903D01*
X157204833Y-98344570D01*
X157162500Y-98259903D01*
X157162500Y-98090570D01*
X157204833Y-98005903D01*
D11*
X158242000Y-70358000D02*
X160782000Y-70358000D01*
X160782000Y-67818000D02*
X158242000Y-67818000D01*
X160782000Y-149098000D02*
X160782000Y-67818000D01*
X158242000Y-149098000D02*
X160782000Y-149098000D01*
X158242000Y-67818000D02*
X158242000Y-149098000D01*
X143002000Y-70358000D02*
X145542000Y-70358000D01*
X145542000Y-67818000D02*
X144272000Y-67818000D01*
X145542000Y-149098000D02*
X145542000Y-67818000D01*
X143002000Y-149098000D02*
X145542000Y-149098000D01*
X143002000Y-67818000D02*
X143002000Y-149098000D01*
X144272000Y-67818000D02*
X143002000Y-67818000D01*
D12*
X156337000Y-139573000D02*
X156337000Y-77343000D01*
X147447000Y-139573000D02*
X156337000Y-139573000D01*
X147447000Y-77343000D02*
X147447000Y-139573000D01*
X147447000Y-77343000D02*
X156337000Y-77343000D01*
X151823600Y-144618800D02*
X151823600Y-143518800D01*
X151823600Y-143518800D02*
X149623600Y-143518800D01*
X149623600Y-143518800D02*
X149623600Y-144618800D01*
X149623600Y-144618800D02*
X151773600Y-144618800D01*
D13*
X151773600Y-144618800D02*
X151823600Y-144618800D01*
D12*
X147294600Y-144907000D02*
X147294600Y-145669000D01*
D14*
G36*
X156448565Y-72641813D02*
X156483866Y-72566372D01*
X156554091Y-72524909D01*
X156667643Y-72509601D01*
X156708452Y-72508937D01*
X156807090Y-72512939D01*
X156868576Y-72528865D01*
X156911877Y-72562598D01*
X156922825Y-72575414D01*
X156963126Y-72662289D01*
X156960922Y-72720557D01*
X156954329Y-72765671D01*
X156966242Y-72789063D01*
X157009185Y-72797869D01*
X157095681Y-72799223D01*
X157099000Y-72799223D01*
X157186961Y-72797980D01*
X157231001Y-72789494D01*
X157243645Y-72766630D01*
X157237417Y-72722254D01*
X157237077Y-72720557D01*
X157243731Y-72628508D01*
X157276009Y-72574383D01*
X157311081Y-72538935D01*
X157355056Y-72518282D01*
X157423479Y-72508324D01*
X157531894Y-72504958D01*
X157539392Y-72504882D01*
X157646745Y-72505124D01*
X157710115Y-72510690D01*
X157741933Y-72525019D01*
X157754628Y-72551548D01*
X157756955Y-72565059D01*
X157757511Y-72598087D01*
X157739600Y-72617631D01*
X157691465Y-72628214D01*
X157601351Y-72634357D01*
X157573510Y-72635615D01*
X157471949Y-72641289D01*
X157414375Y-72650578D01*
X157388348Y-72668589D01*
X157381431Y-72700428D01*
X157381222Y-72714556D01*
X157384658Y-72752107D01*
X157403296Y-72774054D01*
X157449632Y-72785571D01*
X157536159Y-72791833D01*
X157571722Y-72793457D01*
X157673964Y-72799911D01*
X157731774Y-72810630D01*
X157757162Y-72829527D01*
X157762222Y-72855548D01*
X157753997Y-72886782D01*
X157720827Y-72904847D01*
X157649966Y-72914629D01*
X157599944Y-72917759D01*
X157517000Y-72920109D01*
X157390970Y-72921216D01*
X157235195Y-72921075D01*
X157063020Y-72919683D01*
X156939626Y-72917958D01*
X156670580Y-72913494D01*
X156670580Y-72793988D01*
X156761532Y-72788739D01*
X156829572Y-72761428D01*
X156858908Y-72718710D01*
X156859111Y-72714556D01*
X156839997Y-72680596D01*
X156818747Y-72659746D01*
X156765421Y-72639915D01*
X156686069Y-72634211D01*
X156670580Y-72635124D01*
X156599533Y-72645953D01*
X156568933Y-72670377D01*
X156562777Y-72714556D01*
X156570385Y-72761682D01*
X156603852Y-72784465D01*
X156670580Y-72793988D01*
X156670580Y-72913494D01*
X156441586Y-72909693D01*
X156439787Y-72759054D01*
X156448565Y-72641813D01*
X156448565Y-72641813D01*
G37*
X156448565Y-72641813D02*
X156483866Y-72566372D01*
X156554091Y-72524909D01*
X156667643Y-72509601D01*
X156708452Y-72508937D01*
X156807090Y-72512939D01*
X156868576Y-72528865D01*
X156911877Y-72562598D01*
X156922825Y-72575414D01*
X156963126Y-72662289D01*
X156960922Y-72720557D01*
X156954329Y-72765671D01*
X156966242Y-72789063D01*
X157009185Y-72797869D01*
X157095681Y-72799223D01*
X157099000Y-72799223D01*
X157186961Y-72797980D01*
X157231001Y-72789494D01*
X157243645Y-72766630D01*
X157237417Y-72722254D01*
X157237077Y-72720557D01*
X157243731Y-72628508D01*
X157276009Y-72574383D01*
X157311081Y-72538935D01*
X157355056Y-72518282D01*
X157423479Y-72508324D01*
X157531894Y-72504958D01*
X157539392Y-72504882D01*
X157646745Y-72505124D01*
X157710115Y-72510690D01*
X157741933Y-72525019D01*
X157754628Y-72551548D01*
X157756955Y-72565059D01*
X157757511Y-72598087D01*
X157739600Y-72617631D01*
X157691465Y-72628214D01*
X157601351Y-72634357D01*
X157573510Y-72635615D01*
X157471949Y-72641289D01*
X157414375Y-72650578D01*
X157388348Y-72668589D01*
X157381431Y-72700428D01*
X157381222Y-72714556D01*
X157384658Y-72752107D01*
X157403296Y-72774054D01*
X157449632Y-72785571D01*
X157536159Y-72791833D01*
X157571722Y-72793457D01*
X157673964Y-72799911D01*
X157731774Y-72810630D01*
X157757162Y-72829527D01*
X157762222Y-72855548D01*
X157753997Y-72886782D01*
X157720827Y-72904847D01*
X157649966Y-72914629D01*
X157599944Y-72917759D01*
X157517000Y-72920109D01*
X157390970Y-72921216D01*
X157235195Y-72921075D01*
X157063020Y-72919683D01*
X156939626Y-72917958D01*
X156670580Y-72913494D01*
X156670580Y-72793988D01*
X156761532Y-72788739D01*
X156829572Y-72761428D01*
X156858908Y-72718710D01*
X156859111Y-72714556D01*
X156839997Y-72680596D01*
X156818747Y-72659746D01*
X156765421Y-72639915D01*
X156686069Y-72634211D01*
X156670580Y-72635124D01*
X156599533Y-72645953D01*
X156568933Y-72670377D01*
X156562777Y-72714556D01*
X156570385Y-72761682D01*
X156603852Y-72784465D01*
X156670580Y-72793988D01*
X156670580Y-72913494D01*
X156441586Y-72909693D01*
X156439787Y-72759054D01*
X156448565Y-72641813D01*
G36*
X157238178Y-72166143D02*
X157269933Y-72099947D01*
X157298456Y-72067958D01*
X157337894Y-72049081D01*
X157402383Y-72039971D01*
X157506062Y-72037284D01*
X157535125Y-72037223D01*
X157756384Y-72037223D01*
X157758251Y-72193497D01*
X157753442Y-72299385D01*
X157732874Y-72367885D01*
X157704725Y-72405164D01*
X157639852Y-72452400D01*
X157599944Y-72451680D01*
X157599944Y-72314217D01*
X157635472Y-72308042D01*
X157648605Y-72262802D01*
X157649333Y-72236848D01*
X157641158Y-72174249D01*
X157609858Y-72151473D01*
X157591014Y-72150111D01*
X157549337Y-72161235D01*
X157539698Y-72205048D01*
X157541625Y-72227481D01*
X157565718Y-72291824D01*
X157599944Y-72314217D01*
X157599944Y-72451680D01*
X157576361Y-72451254D01*
X157514501Y-72416622D01*
X157469251Y-72366091D01*
X157452478Y-72288041D01*
X157451777Y-72259331D01*
X157447397Y-72186356D01*
X157430212Y-72156706D01*
X157402388Y-72155785D01*
X157366724Y-72181198D01*
X157353440Y-72246071D01*
X157353000Y-72268071D01*
X157344552Y-72356813D01*
X157320958Y-72396792D01*
X157284844Y-72385132D01*
X157266025Y-72363395D01*
X157229882Y-72270169D01*
X157238178Y-72166143D01*
X157238178Y-72166143D01*
G37*
X157238178Y-72166143D02*
X157269933Y-72099947D01*
X157298456Y-72067958D01*
X157337894Y-72049081D01*
X157402383Y-72039971D01*
X157506062Y-72037284D01*
X157535125Y-72037223D01*
X157756384Y-72037223D01*
X157758251Y-72193497D01*
X157753442Y-72299385D01*
X157732874Y-72367885D01*
X157704725Y-72405164D01*
X157639852Y-72452400D01*
X157599944Y-72451680D01*
X157599944Y-72314217D01*
X157635472Y-72308042D01*
X157648605Y-72262802D01*
X157649333Y-72236848D01*
X157641158Y-72174249D01*
X157609858Y-72151473D01*
X157591014Y-72150111D01*
X157549337Y-72161235D01*
X157539698Y-72205048D01*
X157541625Y-72227481D01*
X157565718Y-72291824D01*
X157599944Y-72314217D01*
X157599944Y-72451680D01*
X157576361Y-72451254D01*
X157514501Y-72416622D01*
X157469251Y-72366091D01*
X157452478Y-72288041D01*
X157451777Y-72259331D01*
X157447397Y-72186356D01*
X157430212Y-72156706D01*
X157402388Y-72155785D01*
X157366724Y-72181198D01*
X157353440Y-72246071D01*
X157353000Y-72268071D01*
X157344552Y-72356813D01*
X157320958Y-72396792D01*
X157284844Y-72385132D01*
X157266025Y-72363395D01*
X157229882Y-72270169D01*
X157238178Y-72166143D01*
G36*
X157239246Y-71822053D02*
X157257677Y-71811445D01*
X157272803Y-71798047D01*
X157254526Y-71769478D01*
X157236775Y-71720386D01*
X157237878Y-71657348D01*
X157254548Y-71604522D01*
X157279526Y-71585667D01*
X157323542Y-71610885D01*
X157358869Y-71674671D01*
X157371462Y-71726778D01*
X157380660Y-71764450D01*
X157403969Y-71786502D01*
X157454551Y-71798121D01*
X157545572Y-71804493D01*
X157571722Y-71805679D01*
X157673749Y-71812044D01*
X157731434Y-71822593D01*
X157756881Y-71841361D01*
X157762222Y-71869179D01*
X157757875Y-71894835D01*
X157737873Y-71911030D01*
X157691772Y-71919912D01*
X157609132Y-71923629D01*
X157494111Y-71924334D01*
X157369498Y-71923481D01*
X157290852Y-71919455D01*
X157247701Y-71910050D01*
X157229576Y-71893062D01*
X157226000Y-71867889D01*
X157239246Y-71822053D01*
X157239246Y-71822053D01*
G37*
X157239246Y-71822053D02*
X157257677Y-71811445D01*
X157272803Y-71798047D01*
X157254526Y-71769478D01*
X157236775Y-71720386D01*
X157237878Y-71657348D01*
X157254548Y-71604522D01*
X157279526Y-71585667D01*
X157323542Y-71610885D01*
X157358869Y-71674671D01*
X157371462Y-71726778D01*
X157380660Y-71764450D01*
X157403969Y-71786502D01*
X157454551Y-71798121D01*
X157545572Y-71804493D01*
X157571722Y-71805679D01*
X157673749Y-71812044D01*
X157731434Y-71822593D01*
X157756881Y-71841361D01*
X157762222Y-71869179D01*
X157757875Y-71894835D01*
X157737873Y-71911030D01*
X157691772Y-71919912D01*
X157609132Y-71923629D01*
X157494111Y-71924334D01*
X157369498Y-71923481D01*
X157290852Y-71919455D01*
X157247701Y-71910050D01*
X157229576Y-71893062D01*
X157226000Y-71867889D01*
X157239246Y-71822053D01*
G36*
X157031584Y-71195629D02*
X157047032Y-71179852D01*
X157083832Y-71170041D01*
X157151027Y-71164790D01*
X157257661Y-71162690D01*
X157391337Y-71162334D01*
X157754230Y-71162334D01*
X157756624Y-71331189D01*
X157754777Y-71430841D01*
X157742567Y-71491229D01*
X157715308Y-71529249D01*
X157697896Y-71542855D01*
X157616528Y-71575391D01*
X157510531Y-71587108D01*
X157504593Y-71586650D01*
X157504593Y-71472778D01*
X157587013Y-71456597D01*
X157635831Y-71416584D01*
X157645423Y-71365536D01*
X157610163Y-71316249D01*
X157580858Y-71299258D01*
X157500139Y-71281619D01*
X157421047Y-71293169D01*
X157365960Y-71329355D01*
X157357312Y-71344718D01*
X157362229Y-71399039D01*
X157408250Y-71445554D01*
X157480282Y-71471144D01*
X157504593Y-71472778D01*
X157504593Y-71586650D01*
X157402082Y-71578734D01*
X157313360Y-71550996D01*
X157282444Y-71529223D01*
X157232791Y-71453969D01*
X157236226Y-71372899D01*
X157255215Y-71329812D01*
X157268007Y-71296471D01*
X157251689Y-71280444D01*
X157194982Y-71275496D01*
X157156437Y-71275223D01*
X157076693Y-71271589D01*
X157038828Y-71256475D01*
X157028512Y-71223561D01*
X157028444Y-71218778D01*
X157031584Y-71195629D01*
X157031584Y-71195629D01*
G37*
X157031584Y-71195629D02*
X157047032Y-71179852D01*
X157083832Y-71170041D01*
X157151027Y-71164790D01*
X157257661Y-71162690D01*
X157391337Y-71162334D01*
X157754230Y-71162334D01*
X157756624Y-71331189D01*
X157754777Y-71430841D01*
X157742567Y-71491229D01*
X157715308Y-71529249D01*
X157697896Y-71542855D01*
X157616528Y-71575391D01*
X157510531Y-71587108D01*
X157504593Y-71586650D01*
X157504593Y-71472778D01*
X157587013Y-71456597D01*
X157635831Y-71416584D01*
X157645423Y-71365536D01*
X157610163Y-71316249D01*
X157580858Y-71299258D01*
X157500139Y-71281619D01*
X157421047Y-71293169D01*
X157365960Y-71329355D01*
X157357312Y-71344718D01*
X157362229Y-71399039D01*
X157408250Y-71445554D01*
X157480282Y-71471144D01*
X157504593Y-71472778D01*
X157504593Y-71586650D01*
X157402082Y-71578734D01*
X157313360Y-71550996D01*
X157282444Y-71529223D01*
X157232791Y-71453969D01*
X157236226Y-71372899D01*
X157255215Y-71329812D01*
X157268007Y-71296471D01*
X157251689Y-71280444D01*
X157194982Y-71275496D01*
X157156437Y-71275223D01*
X157076693Y-71271589D01*
X157038828Y-71256475D01*
X157028512Y-71223561D01*
X157028444Y-71218778D01*
X157031584Y-71195629D01*
G36*
X157232572Y-70410798D02*
X157241604Y-70400334D01*
X157273759Y-70407929D01*
X157347144Y-70428312D01*
X157448979Y-70457879D01*
X157510970Y-70476296D01*
X157630942Y-70513813D01*
X157705658Y-70542514D01*
X157744559Y-70567510D01*
X157757087Y-70593914D01*
X157756421Y-70609180D01*
X157734085Y-70649657D01*
X157673609Y-70684468D01*
X157592888Y-70711939D01*
X157437666Y-70757776D01*
X157599944Y-70809987D01*
X157704042Y-70849482D01*
X157757442Y-70886684D01*
X157759100Y-70924274D01*
X157707973Y-70964931D01*
X157603019Y-71011337D01*
X157508577Y-71044803D01*
X157385869Y-71082597D01*
X157294931Y-71103730D01*
X157244502Y-71106340D01*
X157237965Y-71102418D01*
X157231289Y-71049638D01*
X157280281Y-71003663D01*
X157384533Y-70964859D01*
X157392738Y-70962716D01*
X157469453Y-70939659D01*
X157514438Y-70919401D01*
X157519834Y-70910183D01*
X157485977Y-70892501D01*
X157417258Y-70865356D01*
X157372170Y-70849453D01*
X157294743Y-70815779D01*
X157247478Y-70780680D01*
X157240111Y-70764903D01*
X157265323Y-70733926D01*
X157332683Y-70695904D01*
X157404667Y-70666766D01*
X157569222Y-70608410D01*
X157397611Y-70560698D01*
X157299791Y-70529768D01*
X157246602Y-70501362D01*
X157226990Y-70468778D01*
X157226000Y-70456660D01*
X157232572Y-70410798D01*
X157232572Y-70410798D01*
G37*
X157232572Y-70410798D02*
X157241604Y-70400334D01*
X157273759Y-70407929D01*
X157347144Y-70428312D01*
X157448979Y-70457879D01*
X157510970Y-70476296D01*
X157630942Y-70513813D01*
X157705658Y-70542514D01*
X157744559Y-70567510D01*
X157757087Y-70593914D01*
X157756421Y-70609180D01*
X157734085Y-70649657D01*
X157673609Y-70684468D01*
X157592888Y-70711939D01*
X157437666Y-70757776D01*
X157599944Y-70809987D01*
X157704042Y-70849482D01*
X157757442Y-70886684D01*
X157759100Y-70924274D01*
X157707973Y-70964931D01*
X157603019Y-71011337D01*
X157508577Y-71044803D01*
X157385869Y-71082597D01*
X157294931Y-71103730D01*
X157244502Y-71106340D01*
X157237965Y-71102418D01*
X157231289Y-71049638D01*
X157280281Y-71003663D01*
X157384533Y-70964859D01*
X157392738Y-70962716D01*
X157469453Y-70939659D01*
X157514438Y-70919401D01*
X157519834Y-70910183D01*
X157485977Y-70892501D01*
X157417258Y-70865356D01*
X157372170Y-70849453D01*
X157294743Y-70815779D01*
X157247478Y-70780680D01*
X157240111Y-70764903D01*
X157265323Y-70733926D01*
X157332683Y-70695904D01*
X157404667Y-70666766D01*
X157569222Y-70608410D01*
X157397611Y-70560698D01*
X157299791Y-70529768D01*
X157246602Y-70501362D01*
X157226990Y-70468778D01*
X157226000Y-70456660D01*
X157232572Y-70410798D01*
G36*
X157245445Y-70107103D02*
X157280055Y-70031901D01*
X157310025Y-70005566D01*
X157364535Y-69991057D01*
X157455472Y-69980774D01*
X157559777Y-69977000D01*
X157756155Y-69977000D01*
X157758486Y-70142595D01*
X157754785Y-70250030D01*
X157737592Y-70317307D01*
X157709908Y-70354262D01*
X157629606Y-70398756D01*
X157618253Y-70397945D01*
X157618253Y-70275070D01*
X157619573Y-70274284D01*
X157644148Y-70231007D01*
X157641151Y-70168679D01*
X157615666Y-70114290D01*
X157585833Y-70095117D01*
X157546892Y-70104133D01*
X157536876Y-70151320D01*
X157549220Y-70226852D01*
X157579270Y-70272449D01*
X157618253Y-70275070D01*
X157618253Y-70397945D01*
X157553716Y-70393333D01*
X157492674Y-70344201D01*
X157456916Y-70257566D01*
X157451777Y-70200762D01*
X157444359Y-70122640D01*
X157420120Y-70091339D01*
X157409982Y-70089889D01*
X157372117Y-70115420D01*
X157349837Y-70183633D01*
X157347183Y-70281958D01*
X157347394Y-70284588D01*
X157338464Y-70345943D01*
X157307733Y-70362342D01*
X157269952Y-70331843D01*
X157252523Y-70297088D01*
X157234883Y-70202518D01*
X157245445Y-70107103D01*
X157245445Y-70107103D01*
G37*
X157245445Y-70107103D02*
X157280055Y-70031901D01*
X157310025Y-70005566D01*
X157364535Y-69991057D01*
X157455472Y-69980774D01*
X157559777Y-69977000D01*
X157756155Y-69977000D01*
X157758486Y-70142595D01*
X157754785Y-70250030D01*
X157737592Y-70317307D01*
X157709908Y-70354262D01*
X157629606Y-70398756D01*
X157618253Y-70397945D01*
X157618253Y-70275070D01*
X157619573Y-70274284D01*
X157644148Y-70231007D01*
X157641151Y-70168679D01*
X157615666Y-70114290D01*
X157585833Y-70095117D01*
X157546892Y-70104133D01*
X157536876Y-70151320D01*
X157549220Y-70226852D01*
X157579270Y-70272449D01*
X157618253Y-70275070D01*
X157618253Y-70397945D01*
X157553716Y-70393333D01*
X157492674Y-70344201D01*
X157456916Y-70257566D01*
X157451777Y-70200762D01*
X157444359Y-70122640D01*
X157420120Y-70091339D01*
X157409982Y-70089889D01*
X157372117Y-70115420D01*
X157349837Y-70183633D01*
X157347183Y-70281958D01*
X157347394Y-70284588D01*
X157338464Y-70345943D01*
X157307733Y-70362342D01*
X157269952Y-70331843D01*
X157252523Y-70297088D01*
X157234883Y-70202518D01*
X157245445Y-70107103D01*
G36*
X157237458Y-69644352D02*
X157246881Y-69574390D01*
X157254514Y-69553194D01*
X157288611Y-69532525D01*
X157326489Y-69554181D01*
X157356488Y-69606195D01*
X157367111Y-69668722D01*
X157369520Y-69711137D01*
X157385100Y-69735721D01*
X157426377Y-69748279D01*
X157505877Y-69754615D01*
X157557611Y-69756989D01*
X157659449Y-69763143D01*
X157717888Y-69773577D01*
X157745972Y-69793057D01*
X157756742Y-69826345D01*
X157757271Y-69829921D01*
X157759427Y-69860013D01*
X157748634Y-69878510D01*
X157714601Y-69887703D01*
X157647036Y-69889884D01*
X157535647Y-69887344D01*
X157503780Y-69886365D01*
X157241128Y-69878223D01*
X157236007Y-69734824D01*
X157237458Y-69644352D01*
X157237458Y-69644352D01*
G37*
X157237458Y-69644352D02*
X157246881Y-69574390D01*
X157254514Y-69553194D01*
X157288611Y-69532525D01*
X157326489Y-69554181D01*
X157356488Y-69606195D01*
X157367111Y-69668722D01*
X157369520Y-69711137D01*
X157385100Y-69735721D01*
X157426377Y-69748279D01*
X157505877Y-69754615D01*
X157557611Y-69756989D01*
X157659449Y-69763143D01*
X157717888Y-69773577D01*
X157745972Y-69793057D01*
X157756742Y-69826345D01*
X157757271Y-69829921D01*
X157759427Y-69860013D01*
X157748634Y-69878510D01*
X157714601Y-69887703D01*
X157647036Y-69889884D01*
X157535647Y-69887344D01*
X157503780Y-69886365D01*
X157241128Y-69878223D01*
X157236007Y-69734824D01*
X157237458Y-69644352D01*
G36*
X157251750Y-69242298D02*
X157319313Y-69161931D01*
X157414154Y-69111934D01*
X157481327Y-69102111D01*
X157513069Y-69109143D01*
X157529699Y-69139051D01*
X157535849Y-69205054D01*
X157536444Y-69259403D01*
X157538869Y-69349443D01*
X157548819Y-69395128D01*
X157570308Y-69408437D01*
X157585833Y-69406856D01*
X157619326Y-69384743D01*
X157633637Y-69327398D01*
X157635222Y-69280394D01*
X157642918Y-69184587D01*
X157664881Y-69138966D01*
X157699423Y-69145651D01*
X157722196Y-69171050D01*
X157753984Y-69252386D01*
X157758746Y-69352832D01*
X157735338Y-69441339D01*
X157732361Y-69446723D01*
X157679572Y-69491466D01*
X157592422Y-69524382D01*
X157492705Y-69539358D01*
X157419397Y-69534491D01*
X157389129Y-69520772D01*
X157389129Y-69411384D01*
X157424661Y-69405708D01*
X157448677Y-69359811D01*
X157451777Y-69327889D01*
X157439969Y-69262496D01*
X157412463Y-69243223D01*
X157369086Y-69266737D01*
X157349673Y-69321919D01*
X157356905Y-69370223D01*
X157389129Y-69411384D01*
X157389129Y-69520772D01*
X157345348Y-69500926D01*
X157277155Y-69440922D01*
X157233194Y-69373004D01*
X157226000Y-69339522D01*
X157251750Y-69242298D01*
X157251750Y-69242298D01*
G37*
X157251750Y-69242298D02*
X157319313Y-69161931D01*
X157414154Y-69111934D01*
X157481327Y-69102111D01*
X157513069Y-69109143D01*
X157529699Y-69139051D01*
X157535849Y-69205054D01*
X157536444Y-69259403D01*
X157538869Y-69349443D01*
X157548819Y-69395128D01*
X157570308Y-69408437D01*
X157585833Y-69406856D01*
X157619326Y-69384743D01*
X157633637Y-69327398D01*
X157635222Y-69280394D01*
X157642918Y-69184587D01*
X157664881Y-69138966D01*
X157699423Y-69145651D01*
X157722196Y-69171050D01*
X157753984Y-69252386D01*
X157758746Y-69352832D01*
X157735338Y-69441339D01*
X157732361Y-69446723D01*
X157679572Y-69491466D01*
X157592422Y-69524382D01*
X157492705Y-69539358D01*
X157419397Y-69534491D01*
X157389129Y-69520772D01*
X157389129Y-69411384D01*
X157424661Y-69405708D01*
X157448677Y-69359811D01*
X157451777Y-69327889D01*
X157439969Y-69262496D01*
X157412463Y-69243223D01*
X157369086Y-69266737D01*
X157349673Y-69321919D01*
X157356905Y-69370223D01*
X157389129Y-69411384D01*
X157389129Y-69520772D01*
X157345348Y-69500926D01*
X157277155Y-69440922D01*
X157233194Y-69373004D01*
X157226000Y-69339522D01*
X157251750Y-69242298D01*
G36*
X156474857Y-73092790D02*
X156552253Y-73031566D01*
X156662592Y-72999398D01*
X156708977Y-72996778D01*
X156827651Y-73017185D01*
X156913473Y-73071827D01*
X156960662Y-73150841D01*
X156963435Y-73244362D01*
X156916011Y-73342524D01*
X156913507Y-73345750D01*
X156869052Y-73391029D01*
X156815003Y-73413243D01*
X156730316Y-73419961D01*
X156706760Y-73420111D01*
X156691378Y-73419204D01*
X156691378Y-73302388D01*
X156778698Y-73295277D01*
X156821494Y-73263212D01*
X156842999Y-73198856D01*
X156816326Y-73145379D01*
X156749740Y-73113806D01*
X156706351Y-73109667D01*
X156615689Y-73126482D01*
X156565433Y-73167690D01*
X156556660Y-73219438D01*
X156590446Y-73267872D01*
X156667869Y-73299139D01*
X156691378Y-73302388D01*
X156691378Y-73419204D01*
X156607212Y-73414236D01*
X156542152Y-73392216D01*
X156497141Y-73354793D01*
X156441621Y-73264003D01*
X156436087Y-73173469D01*
X156474857Y-73092790D01*
X156474857Y-73092790D01*
G37*
X156474857Y-73092790D02*
X156552253Y-73031566D01*
X156662592Y-72999398D01*
X156708977Y-72996778D01*
X156827651Y-73017185D01*
X156913473Y-73071827D01*
X156960662Y-73150841D01*
X156963435Y-73244362D01*
X156916011Y-73342524D01*
X156913507Y-73345750D01*
X156869052Y-73391029D01*
X156815003Y-73413243D01*
X156730316Y-73419961D01*
X156706760Y-73420111D01*
X156691378Y-73419204D01*
X156691378Y-73302388D01*
X156778698Y-73295277D01*
X156821494Y-73263212D01*
X156842999Y-73198856D01*
X156816326Y-73145379D01*
X156749740Y-73113806D01*
X156706351Y-73109667D01*
X156615689Y-73126482D01*
X156565433Y-73167690D01*
X156556660Y-73219438D01*
X156590446Y-73267872D01*
X156667869Y-73299139D01*
X156691378Y-73302388D01*
X156691378Y-73419204D01*
X156607212Y-73414236D01*
X156542152Y-73392216D01*
X156497141Y-73354793D01*
X156441621Y-73264003D01*
X156436087Y-73173469D01*
X156474857Y-73092790D01*
G36*
X156462437Y-72130483D02*
X156528469Y-72061390D01*
X156630718Y-72020258D01*
X156640388Y-72018560D01*
X156746222Y-72001615D01*
X156746222Y-72160530D01*
X156750201Y-72256699D01*
X156763760Y-72306447D01*
X156786653Y-72319445D01*
X156827931Y-72295849D01*
X156848328Y-72239749D01*
X156841510Y-72173181D01*
X156833773Y-72155501D01*
X156821413Y-72096856D01*
X156837854Y-72069768D01*
X156878995Y-72040581D01*
X156910612Y-72056786D01*
X156939247Y-72109106D01*
X156969288Y-72210594D01*
X156952849Y-72297012D01*
X156915211Y-72355805D01*
X156826079Y-72426203D01*
X156711102Y-72451563D01*
X156598055Y-72433444D01*
X156598055Y-72312389D01*
X156624818Y-72297703D01*
X156633333Y-72234778D01*
X156624014Y-72170085D01*
X156598055Y-72157167D01*
X156570507Y-72191184D01*
X156562777Y-72234778D01*
X156576081Y-72290636D01*
X156598055Y-72312389D01*
X156598055Y-72433444D01*
X156590881Y-72432294D01*
X156496842Y-72378440D01*
X156445103Y-72301715D01*
X156434141Y-72214827D01*
X156462437Y-72130483D01*
X156462437Y-72130483D01*
G37*
X156462437Y-72130483D02*
X156528469Y-72061390D01*
X156630718Y-72020258D01*
X156640388Y-72018560D01*
X156746222Y-72001615D01*
X156746222Y-72160530D01*
X156750201Y-72256699D01*
X156763760Y-72306447D01*
X156786653Y-72319445D01*
X156827931Y-72295849D01*
X156848328Y-72239749D01*
X156841510Y-72173181D01*
X156833773Y-72155501D01*
X156821413Y-72096856D01*
X156837854Y-72069768D01*
X156878995Y-72040581D01*
X156910612Y-72056786D01*
X156939247Y-72109106D01*
X156969288Y-72210594D01*
X156952849Y-72297012D01*
X156915211Y-72355805D01*
X156826079Y-72426203D01*
X156711102Y-72451563D01*
X156598055Y-72433444D01*
X156598055Y-72312389D01*
X156624818Y-72297703D01*
X156633333Y-72234778D01*
X156624014Y-72170085D01*
X156598055Y-72157167D01*
X156570507Y-72191184D01*
X156562777Y-72234778D01*
X156576081Y-72290636D01*
X156598055Y-72312389D01*
X156598055Y-72433444D01*
X156590881Y-72432294D01*
X156496842Y-72378440D01*
X156445103Y-72301715D01*
X156434141Y-72214827D01*
X156462437Y-72130483D01*
G36*
X156448095Y-71679292D02*
X156475358Y-71602183D01*
X156532376Y-71556367D01*
X156627948Y-71534501D01*
X156760333Y-71529223D01*
X156868677Y-71530610D01*
X156932257Y-71536795D01*
X156962725Y-71550815D01*
X156971734Y-71575707D01*
X156972000Y-71584378D01*
X156965351Y-71614400D01*
X156937286Y-71632359D01*
X156875624Y-71642378D01*
X156784446Y-71647878D01*
X156673831Y-71656658D01*
X156606639Y-71673170D01*
X156570006Y-71700906D01*
X156565724Y-71707264D01*
X156555746Y-71762157D01*
X156596786Y-71804138D01*
X156684395Y-71830779D01*
X156808060Y-71839667D01*
X156900795Y-71841863D01*
X156950243Y-71851455D01*
X156969488Y-71872948D01*
X156972000Y-71896111D01*
X156967902Y-71922495D01*
X156948581Y-71939081D01*
X156903498Y-71948119D01*
X156822112Y-71951859D01*
X156707601Y-71952556D01*
X156443202Y-71952556D01*
X156441786Y-71795037D01*
X156448095Y-71679292D01*
X156448095Y-71679292D01*
G37*
X156448095Y-71679292D02*
X156475358Y-71602183D01*
X156532376Y-71556367D01*
X156627948Y-71534501D01*
X156760333Y-71529223D01*
X156868677Y-71530610D01*
X156932257Y-71536795D01*
X156962725Y-71550815D01*
X156971734Y-71575707D01*
X156972000Y-71584378D01*
X156965351Y-71614400D01*
X156937286Y-71632359D01*
X156875624Y-71642378D01*
X156784446Y-71647878D01*
X156673831Y-71656658D01*
X156606639Y-71673170D01*
X156570006Y-71700906D01*
X156565724Y-71707264D01*
X156555746Y-71762157D01*
X156596786Y-71804138D01*
X156684395Y-71830779D01*
X156808060Y-71839667D01*
X156900795Y-71841863D01*
X156950243Y-71851455D01*
X156969488Y-71872948D01*
X156972000Y-71896111D01*
X156967902Y-71922495D01*
X156948581Y-71939081D01*
X156903498Y-71948119D01*
X156822112Y-71951859D01*
X156707601Y-71952556D01*
X156443202Y-71952556D01*
X156441786Y-71795037D01*
X156448095Y-71679292D01*
G36*
X156442460Y-70971610D02*
X156468429Y-70895771D01*
X156503696Y-70846927D01*
X156535860Y-70846662D01*
X156557955Y-70887241D01*
X156563016Y-70960932D01*
X156558977Y-70996296D01*
X156551692Y-71068417D01*
X156563264Y-71100164D01*
X156587392Y-71105889D01*
X156623880Y-71083573D01*
X156633333Y-71027502D01*
X156654179Y-70927105D01*
X156709865Y-70855120D01*
X156790118Y-70824052D01*
X156800811Y-70823667D01*
X156871083Y-70836956D01*
X156913465Y-70863482D01*
X156951648Y-70947398D01*
X156959566Y-71055188D01*
X156936266Y-71162491D01*
X156926057Y-71185200D01*
X156892018Y-71243831D01*
X156866029Y-71257856D01*
X156837896Y-71237881D01*
X156812130Y-71191185D01*
X156828133Y-71139259D01*
X156855213Y-71058847D01*
X156853192Y-70987320D01*
X156827733Y-70948717D01*
X156789645Y-70950173D01*
X156760279Y-70996014D01*
X156746848Y-71074201D01*
X156746654Y-71084072D01*
X156721988Y-71164697D01*
X156660316Y-71217365D01*
X156578601Y-71230659D01*
X156542214Y-71221690D01*
X156470896Y-71167462D01*
X156436768Y-71080227D01*
X156442460Y-70971610D01*
X156442460Y-70971610D01*
G37*
X156442460Y-70971610D02*
X156468429Y-70895771D01*
X156503696Y-70846927D01*
X156535860Y-70846662D01*
X156557955Y-70887241D01*
X156563016Y-70960932D01*
X156558977Y-70996296D01*
X156551692Y-71068417D01*
X156563264Y-71100164D01*
X156587392Y-71105889D01*
X156623880Y-71083573D01*
X156633333Y-71027502D01*
X156654179Y-70927105D01*
X156709865Y-70855120D01*
X156790118Y-70824052D01*
X156800811Y-70823667D01*
X156871083Y-70836956D01*
X156913465Y-70863482D01*
X156951648Y-70947398D01*
X156959566Y-71055188D01*
X156936266Y-71162491D01*
X156926057Y-71185200D01*
X156892018Y-71243831D01*
X156866029Y-71257856D01*
X156837896Y-71237881D01*
X156812130Y-71191185D01*
X156828133Y-71139259D01*
X156855213Y-71058847D01*
X156853192Y-70987320D01*
X156827733Y-70948717D01*
X156789645Y-70950173D01*
X156760279Y-70996014D01*
X156746848Y-71074201D01*
X156746654Y-71084072D01*
X156721988Y-71164697D01*
X156660316Y-71217365D01*
X156578601Y-71230659D01*
X156542214Y-71221690D01*
X156470896Y-71167462D01*
X156436768Y-71080227D01*
X156442460Y-70971610D01*
G36*
X156460753Y-70466144D02*
X156530335Y-70391028D01*
X156636504Y-70349751D01*
X156703888Y-70343889D01*
X156824602Y-70363888D01*
X156912044Y-70417602D01*
X156960556Y-70495610D01*
X156964477Y-70588489D01*
X156918148Y-70686815D01*
X156913507Y-70692861D01*
X156870162Y-70737401D01*
X156817838Y-70759693D01*
X156736090Y-70766919D01*
X156708130Y-70767167D01*
X156708130Y-70654334D01*
X156788470Y-70636954D01*
X156834934Y-70594538D01*
X156843862Y-70541666D01*
X156811593Y-70492922D01*
X156755139Y-70467064D01*
X156674927Y-70465217D01*
X156617141Y-70480813D01*
X156560195Y-70525191D01*
X156551334Y-70575421D01*
X156584778Y-70620480D01*
X156654746Y-70649348D01*
X156708130Y-70654334D01*
X156708130Y-70767167D01*
X156701840Y-70767223D01*
X156569849Y-70751411D01*
X156483378Y-70703237D01*
X156440944Y-70621593D01*
X156435777Y-70568384D01*
X156460753Y-70466144D01*
X156460753Y-70466144D01*
G37*
X156460753Y-70466144D02*
X156530335Y-70391028D01*
X156636504Y-70349751D01*
X156703888Y-70343889D01*
X156824602Y-70363888D01*
X156912044Y-70417602D01*
X156960556Y-70495610D01*
X156964477Y-70588489D01*
X156918148Y-70686815D01*
X156913507Y-70692861D01*
X156870162Y-70737401D01*
X156817838Y-70759693D01*
X156736090Y-70766919D01*
X156708130Y-70767167D01*
X156708130Y-70654334D01*
X156788470Y-70636954D01*
X156834934Y-70594538D01*
X156843862Y-70541666D01*
X156811593Y-70492922D01*
X156755139Y-70467064D01*
X156674927Y-70465217D01*
X156617141Y-70480813D01*
X156560195Y-70525191D01*
X156551334Y-70575421D01*
X156584778Y-70620480D01*
X156654746Y-70649348D01*
X156708130Y-70654334D01*
X156708130Y-70767167D01*
X156701840Y-70767223D01*
X156569849Y-70751411D01*
X156483378Y-70703237D01*
X156440944Y-70621593D01*
X156435777Y-70568384D01*
X156460753Y-70466144D01*
G36*
X156439869Y-69894191D02*
X156459165Y-69877609D01*
X156504198Y-69868565D01*
X156585497Y-69864815D01*
X156700632Y-69864111D01*
X156965487Y-69864111D01*
X156965487Y-70006118D01*
X156950353Y-70137535D01*
X156914812Y-70210729D01*
X156880722Y-70243817D01*
X156835244Y-70262805D01*
X156763094Y-70271405D01*
X156657013Y-70273334D01*
X156550174Y-70272053D01*
X156487259Y-70265763D01*
X156455764Y-70250790D01*
X156443184Y-70223460D01*
X156440870Y-70209834D01*
X156439582Y-70176636D01*
X156455326Y-70157632D01*
X156499783Y-70148877D01*
X156584636Y-70146430D01*
X156629018Y-70146334D01*
X156748526Y-70141583D01*
X156818293Y-70124857D01*
X156844411Y-70092446D01*
X156832974Y-70040643D01*
X156826082Y-70026389D01*
X156799524Y-69998265D01*
X156747586Y-69982952D01*
X156656966Y-69977290D01*
X156618229Y-69977000D01*
X156519277Y-69975222D01*
X156464222Y-69967310D01*
X156440563Y-69949395D01*
X156435777Y-69920556D01*
X156439869Y-69894191D01*
X156439869Y-69894191D01*
G37*
X156439869Y-69894191D02*
X156459165Y-69877609D01*
X156504198Y-69868565D01*
X156585497Y-69864815D01*
X156700632Y-69864111D01*
X156965487Y-69864111D01*
X156965487Y-70006118D01*
X156950353Y-70137535D01*
X156914812Y-70210729D01*
X156880722Y-70243817D01*
X156835244Y-70262805D01*
X156763094Y-70271405D01*
X156657013Y-70273334D01*
X156550174Y-70272053D01*
X156487259Y-70265763D01*
X156455764Y-70250790D01*
X156443184Y-70223460D01*
X156440870Y-70209834D01*
X156439582Y-70176636D01*
X156455326Y-70157632D01*
X156499783Y-70148877D01*
X156584636Y-70146430D01*
X156629018Y-70146334D01*
X156748526Y-70141583D01*
X156818293Y-70124857D01*
X156844411Y-70092446D01*
X156832974Y-70040643D01*
X156826082Y-70026389D01*
X156799524Y-69998265D01*
X156747586Y-69982952D01*
X156656966Y-69977290D01*
X156618229Y-69977000D01*
X156519277Y-69975222D01*
X156464222Y-69967310D01*
X156440563Y-69949395D01*
X156435777Y-69920556D01*
X156439869Y-69894191D01*
G36*
X156445608Y-69507594D02*
X156456865Y-69444040D01*
X156467555Y-69424470D01*
X156510013Y-69424699D01*
X156547897Y-69458346D01*
X156560331Y-69504789D01*
X156557942Y-69513757D01*
X156557490Y-69574038D01*
X156609685Y-69614652D01*
X156714204Y-69635426D01*
X156792011Y-69638334D01*
X156890152Y-69640160D01*
X156944473Y-69648267D01*
X156967550Y-69666599D01*
X156972000Y-69694778D01*
X156967902Y-69721162D01*
X156948581Y-69737748D01*
X156903498Y-69746786D01*
X156822112Y-69750526D01*
X156707601Y-69751223D01*
X156443202Y-69751223D01*
X156441809Y-69596232D01*
X156445608Y-69507594D01*
X156445608Y-69507594D01*
G37*
X156445608Y-69507594D02*
X156456865Y-69444040D01*
X156467555Y-69424470D01*
X156510013Y-69424699D01*
X156547897Y-69458346D01*
X156560331Y-69504789D01*
X156557942Y-69513757D01*
X156557490Y-69574038D01*
X156609685Y-69614652D01*
X156714204Y-69635426D01*
X156792011Y-69638334D01*
X156890152Y-69640160D01*
X156944473Y-69648267D01*
X156967550Y-69666599D01*
X156972000Y-69694778D01*
X156967902Y-69721162D01*
X156948581Y-69737748D01*
X156903498Y-69746786D01*
X156822112Y-69750526D01*
X156707601Y-69751223D01*
X156443202Y-69751223D01*
X156441809Y-69596232D01*
X156445608Y-69507594D01*
G36*
X156448176Y-69110794D02*
X156475057Y-69059182D01*
X156511645Y-69023301D01*
X156548135Y-69033972D01*
X156558459Y-69042084D01*
X156587136Y-69081181D01*
X156570685Y-69129743D01*
X156568775Y-69132838D01*
X156551283Y-69200336D01*
X156583677Y-69254890D01*
X156659624Y-69288582D01*
X156697845Y-69294205D01*
X156786129Y-69283252D01*
X156838150Y-69239006D01*
X156846189Y-69171027D01*
X156830576Y-69129750D01*
X156813769Y-69064791D01*
X156838629Y-69024525D01*
X156870357Y-69017445D01*
X156907475Y-69041653D01*
X156943539Y-69100060D01*
X156967346Y-69171341D01*
X156971141Y-69209273D01*
X156956490Y-69273652D01*
X156940037Y-69309367D01*
X156878927Y-69367847D01*
X156785476Y-69409882D01*
X156683260Y-69426741D01*
X156634226Y-69422612D01*
X156538970Y-69379382D01*
X156471719Y-69302748D01*
X156439209Y-69208092D01*
X156448176Y-69110794D01*
X156448176Y-69110794D01*
G37*
X156448176Y-69110794D02*
X156475057Y-69059182D01*
X156511645Y-69023301D01*
X156548135Y-69033972D01*
X156558459Y-69042084D01*
X156587136Y-69081181D01*
X156570685Y-69129743D01*
X156568775Y-69132838D01*
X156551283Y-69200336D01*
X156583677Y-69254890D01*
X156659624Y-69288582D01*
X156697845Y-69294205D01*
X156786129Y-69283252D01*
X156838150Y-69239006D01*
X156846189Y-69171027D01*
X156830576Y-69129750D01*
X156813769Y-69064791D01*
X156838629Y-69024525D01*
X156870357Y-69017445D01*
X156907475Y-69041653D01*
X156943539Y-69100060D01*
X156967346Y-69171341D01*
X156971141Y-69209273D01*
X156956490Y-69273652D01*
X156940037Y-69309367D01*
X156878927Y-69367847D01*
X156785476Y-69409882D01*
X156683260Y-69426741D01*
X156634226Y-69422612D01*
X156538970Y-69379382D01*
X156471719Y-69302748D01*
X156439209Y-69208092D01*
X156448176Y-69110794D01*
G36*
X156461362Y-68678473D02*
X156528176Y-68606931D01*
X156621308Y-68568797D01*
X156656318Y-68565889D01*
X156746222Y-68565889D01*
X156746222Y-68723463D01*
X156752917Y-68823162D01*
X156773018Y-68868048D01*
X156806552Y-68858145D01*
X156842777Y-68811251D01*
X156856771Y-68753426D01*
X156836118Y-68704886D01*
X156813749Y-68650891D01*
X156832111Y-68606830D01*
X156835129Y-68603114D01*
X156865301Y-68577884D01*
X156895682Y-68593038D01*
X156921415Y-68622563D01*
X156966591Y-68718810D01*
X156961546Y-68821937D01*
X156907333Y-68915218D01*
X156902727Y-68919950D01*
X156813655Y-68976547D01*
X156710809Y-68994054D01*
X156618919Y-68978723D01*
X156618919Y-68863586D01*
X156630978Y-68840729D01*
X156633333Y-68781897D01*
X156627998Y-68714863D01*
X156608599Y-68693318D01*
X156591000Y-68696794D01*
X156554530Y-68735463D01*
X156548666Y-68763009D01*
X156569040Y-68822589D01*
X156591000Y-68848111D01*
X156618919Y-68863586D01*
X156618919Y-68978723D01*
X156607901Y-68976884D01*
X156518646Y-68929453D01*
X156456757Y-68856173D01*
X156435777Y-68769647D01*
X156461362Y-68678473D01*
X156461362Y-68678473D01*
G37*
X156461362Y-68678473D02*
X156528176Y-68606931D01*
X156621308Y-68568797D01*
X156656318Y-68565889D01*
X156746222Y-68565889D01*
X156746222Y-68723463D01*
X156752917Y-68823162D01*
X156773018Y-68868048D01*
X156806552Y-68858145D01*
X156842777Y-68811251D01*
X156856771Y-68753426D01*
X156836118Y-68704886D01*
X156813749Y-68650891D01*
X156832111Y-68606830D01*
X156835129Y-68603114D01*
X156865301Y-68577884D01*
X156895682Y-68593038D01*
X156921415Y-68622563D01*
X156966591Y-68718810D01*
X156961546Y-68821937D01*
X156907333Y-68915218D01*
X156902727Y-68919950D01*
X156813655Y-68976547D01*
X156710809Y-68994054D01*
X156618919Y-68978723D01*
X156618919Y-68863586D01*
X156630978Y-68840729D01*
X156633333Y-68781897D01*
X156627998Y-68714863D01*
X156608599Y-68693318D01*
X156591000Y-68696794D01*
X156554530Y-68735463D01*
X156548666Y-68763009D01*
X156569040Y-68822589D01*
X156591000Y-68848111D01*
X156618919Y-68863586D01*
X156618919Y-68978723D01*
X156607901Y-68976884D01*
X156518646Y-68929453D01*
X156456757Y-68856173D01*
X156435777Y-68769647D01*
X156461362Y-68678473D01*
G36*
X152766888Y-70705961D02*
X152853145Y-70688167D01*
X152962676Y-70666319D01*
X153021271Y-70654898D01*
X153176875Y-70624880D01*
X153239993Y-70462105D01*
X153273256Y-70372765D01*
X153296125Y-70304545D01*
X153303111Y-70275804D01*
X153287863Y-70242869D01*
X153247590Y-70177504D01*
X153190497Y-70092906D01*
X153180981Y-70079362D01*
X153118904Y-69990710D01*
X153068649Y-69917555D01*
X153040105Y-69874309D01*
X153038662Y-69871907D01*
X153047889Y-69838159D01*
X153087799Y-69777518D01*
X153148103Y-69701917D01*
X153218516Y-69623290D01*
X153288751Y-69553571D01*
X153348521Y-69504694D01*
X153362705Y-69495971D01*
X153401273Y-69493244D01*
X153463760Y-69519160D01*
X153557675Y-69577297D01*
X153611695Y-69614573D01*
X153815201Y-69757952D01*
X153996891Y-69680733D01*
X154110709Y-69625375D01*
X154174553Y-69576263D01*
X154192529Y-69543313D01*
X154205034Y-69484635D01*
X154223662Y-69391971D01*
X154241628Y-69299667D01*
X154276777Y-69116223D01*
X154813000Y-69116223D01*
X154858418Y-69349789D01*
X154880332Y-69457195D01*
X154899337Y-69540823D01*
X154912297Y-69587214D01*
X154914862Y-69592193D01*
X154944733Y-69606197D01*
X155012788Y-69634629D01*
X155104603Y-69671470D01*
X155109333Y-69673335D01*
X155292777Y-69745640D01*
X155462111Y-69626302D01*
X155549176Y-69565434D01*
X155619945Y-69516852D01*
X155660182Y-69490320D01*
X155661793Y-69489363D01*
X155693445Y-69500480D01*
X155753570Y-69544791D01*
X155832036Y-69614314D01*
X155880860Y-69661936D01*
X156069577Y-69852111D01*
X155942233Y-70032956D01*
X155869773Y-70141126D01*
X155830324Y-70218035D01*
X155820743Y-70275766D01*
X155837886Y-70326403D01*
X155858119Y-70356339D01*
X155890195Y-70405884D01*
X155899555Y-70430476D01*
X155874842Y-70447226D01*
X155806522Y-70481104D01*
X155703320Y-70528096D01*
X155573963Y-70584186D01*
X155477842Y-70624512D01*
X155056128Y-70799194D01*
X154950796Y-70682603D01*
X154839193Y-70575629D01*
X154732056Y-70513147D01*
X154613350Y-70487059D01*
X154559495Y-70485000D01*
X154386382Y-70509272D01*
X154241247Y-70582380D01*
X154172739Y-70643802D01*
X154081095Y-70777810D01*
X154038175Y-70922642D01*
X154039957Y-71069032D01*
X154082418Y-71207712D01*
X154161534Y-71329416D01*
X154273283Y-71424878D01*
X154413642Y-71484831D01*
X154544888Y-71501000D01*
X154696281Y-71480280D01*
X154829462Y-71414330D01*
X154948675Y-71305885D01*
X155056128Y-71186807D01*
X155477842Y-71361489D01*
X155619750Y-71421404D01*
X155741302Y-71474889D01*
X155833771Y-71517927D01*
X155888430Y-71546505D01*
X155899555Y-71555524D01*
X155884276Y-71590708D01*
X155858119Y-71629662D01*
X155822835Y-71695376D01*
X155824895Y-71761855D01*
X155866461Y-71844261D01*
X155894446Y-71884822D01*
X155973434Y-71993222D01*
X156022042Y-72067624D01*
X156039716Y-72121950D01*
X156025900Y-72170121D01*
X155980042Y-72226060D01*
X155901587Y-72303688D01*
X155876799Y-72328132D01*
X155685778Y-72517689D01*
X155504933Y-72390345D01*
X155412917Y-72329599D01*
X155333802Y-72284604D01*
X155282344Y-72263599D01*
X155276918Y-72263000D01*
X155232175Y-72272746D01*
X155154990Y-72297245D01*
X155064961Y-72329389D01*
X154981686Y-72362073D01*
X154924764Y-72388189D01*
X154914954Y-72394265D01*
X154904822Y-72423780D01*
X154887293Y-72495349D01*
X154865556Y-72595584D01*
X154857312Y-72636120D01*
X154810605Y-72869778D01*
X154276777Y-72869778D01*
X154241628Y-72686334D01*
X154221191Y-72581544D01*
X154203081Y-72491896D01*
X154192529Y-72442688D01*
X154160591Y-72395677D01*
X154082642Y-72345161D01*
X153996671Y-72305175D01*
X153814761Y-72227862D01*
X153636547Y-72352366D01*
X153546866Y-72414687D01*
X153473149Y-72465311D01*
X153429382Y-72494646D01*
X153426062Y-72496742D01*
X153392832Y-72487283D01*
X153334341Y-72445125D01*
X153261350Y-72381023D01*
X153184619Y-72305734D01*
X153114909Y-72230014D01*
X153062981Y-72164618D01*
X153039596Y-72120303D01*
X153040413Y-72111260D01*
X153064906Y-72073859D01*
X153112411Y-72004608D01*
X153173213Y-71917648D01*
X153180981Y-71906639D01*
X153239892Y-71820293D01*
X153283213Y-71751199D01*
X153302741Y-71712553D01*
X153303111Y-71710196D01*
X153293570Y-71673194D01*
X153268768Y-71600709D01*
X153239993Y-71523896D01*
X153176875Y-71361120D01*
X153021271Y-71331103D01*
X152912666Y-71309782D01*
X152809607Y-71288955D01*
X152766888Y-71280040D01*
X152668111Y-71258994D01*
X152668111Y-70727007D01*
X152766888Y-70705961D01*
X152766888Y-70705961D01*
G37*
X152766888Y-70705961D02*
X152853145Y-70688167D01*
X152962676Y-70666319D01*
X153021271Y-70654898D01*
X153176875Y-70624880D01*
X153239993Y-70462105D01*
X153273256Y-70372765D01*
X153296125Y-70304545D01*
X153303111Y-70275804D01*
X153287863Y-70242869D01*
X153247590Y-70177504D01*
X153190497Y-70092906D01*
X153180981Y-70079362D01*
X153118904Y-69990710D01*
X153068649Y-69917555D01*
X153040105Y-69874309D01*
X153038662Y-69871907D01*
X153047889Y-69838159D01*
X153087799Y-69777518D01*
X153148103Y-69701917D01*
X153218516Y-69623290D01*
X153288751Y-69553571D01*
X153348521Y-69504694D01*
X153362705Y-69495971D01*
X153401273Y-69493244D01*
X153463760Y-69519160D01*
X153557675Y-69577297D01*
X153611695Y-69614573D01*
X153815201Y-69757952D01*
X153996891Y-69680733D01*
X154110709Y-69625375D01*
X154174553Y-69576263D01*
X154192529Y-69543313D01*
X154205034Y-69484635D01*
X154223662Y-69391971D01*
X154241628Y-69299667D01*
X154276777Y-69116223D01*
X154813000Y-69116223D01*
X154858418Y-69349789D01*
X154880332Y-69457195D01*
X154899337Y-69540823D01*
X154912297Y-69587214D01*
X154914862Y-69592193D01*
X154944733Y-69606197D01*
X155012788Y-69634629D01*
X155104603Y-69671470D01*
X155109333Y-69673335D01*
X155292777Y-69745640D01*
X155462111Y-69626302D01*
X155549176Y-69565434D01*
X155619945Y-69516852D01*
X155660182Y-69490320D01*
X155661793Y-69489363D01*
X155693445Y-69500480D01*
X155753570Y-69544791D01*
X155832036Y-69614314D01*
X155880860Y-69661936D01*
X156069577Y-69852111D01*
X155942233Y-70032956D01*
X155869773Y-70141126D01*
X155830324Y-70218035D01*
X155820743Y-70275766D01*
X155837886Y-70326403D01*
X155858119Y-70356339D01*
X155890195Y-70405884D01*
X155899555Y-70430476D01*
X155874842Y-70447226D01*
X155806522Y-70481104D01*
X155703320Y-70528096D01*
X155573963Y-70584186D01*
X155477842Y-70624512D01*
X155056128Y-70799194D01*
X154950796Y-70682603D01*
X154839193Y-70575629D01*
X154732056Y-70513147D01*
X154613350Y-70487059D01*
X154559495Y-70485000D01*
X154386382Y-70509272D01*
X154241247Y-70582380D01*
X154172739Y-70643802D01*
X154081095Y-70777810D01*
X154038175Y-70922642D01*
X154039957Y-71069032D01*
X154082418Y-71207712D01*
X154161534Y-71329416D01*
X154273283Y-71424878D01*
X154413642Y-71484831D01*
X154544888Y-71501000D01*
X154696281Y-71480280D01*
X154829462Y-71414330D01*
X154948675Y-71305885D01*
X155056128Y-71186807D01*
X155477842Y-71361489D01*
X155619750Y-71421404D01*
X155741302Y-71474889D01*
X155833771Y-71517927D01*
X155888430Y-71546505D01*
X155899555Y-71555524D01*
X155884276Y-71590708D01*
X155858119Y-71629662D01*
X155822835Y-71695376D01*
X155824895Y-71761855D01*
X155866461Y-71844261D01*
X155894446Y-71884822D01*
X155973434Y-71993222D01*
X156022042Y-72067624D01*
X156039716Y-72121950D01*
X156025900Y-72170121D01*
X155980042Y-72226060D01*
X155901587Y-72303688D01*
X155876799Y-72328132D01*
X155685778Y-72517689D01*
X155504933Y-72390345D01*
X155412917Y-72329599D01*
X155333802Y-72284604D01*
X155282344Y-72263599D01*
X155276918Y-72263000D01*
X155232175Y-72272746D01*
X155154990Y-72297245D01*
X155064961Y-72329389D01*
X154981686Y-72362073D01*
X154924764Y-72388189D01*
X154914954Y-72394265D01*
X154904822Y-72423780D01*
X154887293Y-72495349D01*
X154865556Y-72595584D01*
X154857312Y-72636120D01*
X154810605Y-72869778D01*
X154276777Y-72869778D01*
X154241628Y-72686334D01*
X154221191Y-72581544D01*
X154203081Y-72491896D01*
X154192529Y-72442688D01*
X154160591Y-72395677D01*
X154082642Y-72345161D01*
X153996671Y-72305175D01*
X153814761Y-72227862D01*
X153636547Y-72352366D01*
X153546866Y-72414687D01*
X153473149Y-72465311D01*
X153429382Y-72494646D01*
X153426062Y-72496742D01*
X153392832Y-72487283D01*
X153334341Y-72445125D01*
X153261350Y-72381023D01*
X153184619Y-72305734D01*
X153114909Y-72230014D01*
X153062981Y-72164618D01*
X153039596Y-72120303D01*
X153040413Y-72111260D01*
X153064906Y-72073859D01*
X153112411Y-72004608D01*
X153173213Y-71917648D01*
X153180981Y-71906639D01*
X153239892Y-71820293D01*
X153283213Y-71751199D01*
X153302741Y-71712553D01*
X153303111Y-71710196D01*
X153293570Y-71673194D01*
X153268768Y-71600709D01*
X153239993Y-71523896D01*
X153176875Y-71361120D01*
X153021271Y-71331103D01*
X152912666Y-71309782D01*
X152809607Y-71288955D01*
X152766888Y-71280040D01*
X152668111Y-71258994D01*
X152668111Y-70727007D01*
X152766888Y-70705961D01*
D10*
X152344967Y-144496367D02*
X152344967Y-143607367D01*
X152556633Y-143607367D01*
X152683633Y-143649700D01*
X152768300Y-143734367D01*
X152810633Y-143819033D01*
X152852967Y-143988367D01*
X152852967Y-144115367D01*
X152810633Y-144284700D01*
X152768300Y-144369367D01*
X152683633Y-144454033D01*
X152556633Y-144496367D01*
X152344967Y-144496367D01*
X153699633Y-144496367D02*
X153191633Y-144496367D01*
X153445633Y-144496367D02*
X153445633Y-143607367D01*
X153360967Y-143734367D01*
X153276300Y-143819033D01*
X153191633Y-143861367D01*
X154249967Y-143607367D02*
X154334634Y-143607367D01*
X154419300Y-143649700D01*
X154461634Y-143692033D01*
X154503967Y-143776700D01*
X154546300Y-143946033D01*
X154546300Y-144157700D01*
X154503967Y-144327033D01*
X154461634Y-144411700D01*
X154419300Y-144454033D01*
X154334634Y-144496367D01*
X154249967Y-144496367D01*
X154165300Y-144454033D01*
X154122967Y-144411700D01*
X154080634Y-144327033D01*
X154038300Y-144157700D01*
X154038300Y-143946033D01*
X154080634Y-143776700D01*
X154122967Y-143692033D01*
X154165300Y-143649700D01*
X154249967Y-143607367D01*
X155392967Y-144496367D02*
X154884967Y-144496367D01*
X155138967Y-144496367D02*
X155138967Y-143607367D01*
X155054301Y-143734367D01*
X154969634Y-143819033D01*
X154884967Y-143861367D01*
X146426767Y-144496367D02*
X146130433Y-144073033D01*
X145918767Y-144496367D02*
X145918767Y-143607367D01*
X146257433Y-143607367D01*
X146342100Y-143649700D01*
X146384433Y-143692033D01*
X146426767Y-143776700D01*
X146426767Y-143903700D01*
X146384433Y-143988367D01*
X146342100Y-144030700D01*
X146257433Y-144073033D01*
X145918767Y-144073033D01*
X147273433Y-144496367D02*
X146765433Y-144496367D01*
X147019433Y-144496367D02*
X147019433Y-143607367D01*
X146934767Y-143734367D01*
X146850100Y-143819033D01*
X146765433Y-143861367D01*
X147823767Y-143607367D02*
X147908434Y-143607367D01*
X147993100Y-143649700D01*
X148035434Y-143692033D01*
X148077767Y-143776700D01*
X148120100Y-143946033D01*
X148120100Y-144157700D01*
X148077767Y-144327033D01*
X148035434Y-144411700D01*
X147993100Y-144454033D01*
X147908434Y-144496367D01*
X147823767Y-144496367D01*
X147739100Y-144454033D01*
X147696767Y-144411700D01*
X147654434Y-144327033D01*
X147612100Y-144157700D01*
X147612100Y-143946033D01*
X147654434Y-143776700D01*
X147696767Y-143692033D01*
X147739100Y-143649700D01*
X147823767Y-143607367D01*
X148416434Y-143607367D02*
X148966767Y-143607367D01*
X148670434Y-143946033D01*
X148797434Y-143946033D01*
X148882101Y-143988367D01*
X148924434Y-144030700D01*
X148966767Y-144115367D01*
X148966767Y-144327033D01*
X148924434Y-144411700D01*
X148882101Y-144454033D01*
X148797434Y-144496367D01*
X148543434Y-144496367D01*
X148458767Y-144454033D01*
X148416434Y-144411700D01*
M02*
